%TF.GenerationSoftware,KiCad,Pcbnew,8.0.7*%
%TF.CreationDate,2025-01-06T00:46:59+00:00*%
%TF.ProjectId,multbuf,6d756c74-6275-4662-9e6b-696361645f70,rev?*%
%TF.SameCoordinates,Original*%
%TF.FileFunction,Legend,Bot*%
%TF.FilePolarity,Positive*%
%FSLAX46Y46*%
G04 Gerber Fmt 4.6, Leading zero omitted, Abs format (unit mm)*
G04 Created by KiCad (PCBNEW 8.0.7) date 2025-01-06 00:46:59*
%MOMM*%
%LPD*%
G01*
G04 APERTURE LIST*
%ADD10C,0.100000*%
%ADD11C,0.150000*%
%ADD12C,0.120000*%
G04 APERTURE END LIST*
D10*
X70496115Y-149696895D02*
X70496115Y-149163561D01*
X70496115Y-149239752D02*
X70448496Y-149201657D01*
X70448496Y-149201657D02*
X70353258Y-149163561D01*
X70353258Y-149163561D02*
X70210401Y-149163561D01*
X70210401Y-149163561D02*
X70115163Y-149201657D01*
X70115163Y-149201657D02*
X70067544Y-149277847D01*
X70067544Y-149277847D02*
X70067544Y-149696895D01*
X70067544Y-149277847D02*
X70019925Y-149201657D01*
X70019925Y-149201657D02*
X69924687Y-149163561D01*
X69924687Y-149163561D02*
X69781830Y-149163561D01*
X69781830Y-149163561D02*
X69686591Y-149201657D01*
X69686591Y-149201657D02*
X69638972Y-149277847D01*
X69638972Y-149277847D02*
X69638972Y-149696895D01*
X68734211Y-149163561D02*
X68734211Y-149696895D01*
X69162782Y-149163561D02*
X69162782Y-149582609D01*
X69162782Y-149582609D02*
X69115163Y-149658800D01*
X69115163Y-149658800D02*
X69019925Y-149696895D01*
X69019925Y-149696895D02*
X68877068Y-149696895D01*
X68877068Y-149696895D02*
X68781830Y-149658800D01*
X68781830Y-149658800D02*
X68734211Y-149620704D01*
X68115163Y-149696895D02*
X68210401Y-149658800D01*
X68210401Y-149658800D02*
X68258020Y-149582609D01*
X68258020Y-149582609D02*
X68258020Y-148896895D01*
X67877067Y-149163561D02*
X67496115Y-149163561D01*
X67734210Y-148896895D02*
X67734210Y-149582609D01*
X67734210Y-149582609D02*
X67686591Y-149658800D01*
X67686591Y-149658800D02*
X67591353Y-149696895D01*
X67591353Y-149696895D02*
X67496115Y-149696895D01*
X67162781Y-149696895D02*
X67162781Y-148896895D01*
X67162781Y-149201657D02*
X67067543Y-149163561D01*
X67067543Y-149163561D02*
X66877067Y-149163561D01*
X66877067Y-149163561D02*
X66781829Y-149201657D01*
X66781829Y-149201657D02*
X66734210Y-149239752D01*
X66734210Y-149239752D02*
X66686591Y-149315942D01*
X66686591Y-149315942D02*
X66686591Y-149544514D01*
X66686591Y-149544514D02*
X66734210Y-149620704D01*
X66734210Y-149620704D02*
X66781829Y-149658800D01*
X66781829Y-149658800D02*
X66877067Y-149696895D01*
X66877067Y-149696895D02*
X67067543Y-149696895D01*
X67067543Y-149696895D02*
X67162781Y-149658800D01*
X65829448Y-149163561D02*
X65829448Y-149696895D01*
X66258019Y-149163561D02*
X66258019Y-149582609D01*
X66258019Y-149582609D02*
X66210400Y-149658800D01*
X66210400Y-149658800D02*
X66115162Y-149696895D01*
X66115162Y-149696895D02*
X65972305Y-149696895D01*
X65972305Y-149696895D02*
X65877067Y-149658800D01*
X65877067Y-149658800D02*
X65829448Y-149620704D01*
X65496114Y-149163561D02*
X65115162Y-149163561D01*
X65353257Y-149696895D02*
X65353257Y-149011180D01*
X65353257Y-149011180D02*
X65305638Y-148934990D01*
X65305638Y-148934990D02*
X65210400Y-148896895D01*
X65210400Y-148896895D02*
X65115162Y-148896895D01*
X63496114Y-149696895D02*
X64067542Y-149696895D01*
X63781828Y-149696895D02*
X63781828Y-148896895D01*
X63781828Y-148896895D02*
X63877066Y-149011180D01*
X63877066Y-149011180D02*
X63972304Y-149087371D01*
X63972304Y-149087371D02*
X64067542Y-149125466D01*
X63067542Y-149620704D02*
X63019923Y-149658800D01*
X63019923Y-149658800D02*
X63067542Y-149696895D01*
X63067542Y-149696895D02*
X63115161Y-149658800D01*
X63115161Y-149658800D02*
X63067542Y-149620704D01*
X63067542Y-149620704D02*
X63067542Y-149696895D01*
X62067543Y-149696895D02*
X62638971Y-149696895D01*
X62353257Y-149696895D02*
X62353257Y-148896895D01*
X62353257Y-148896895D02*
X62448495Y-149011180D01*
X62448495Y-149011180D02*
X62543733Y-149087371D01*
X62543733Y-149087371D02*
X62638971Y-149125466D01*
X60877066Y-149696895D02*
X60877066Y-148896895D01*
X60877066Y-149201657D02*
X60781828Y-149163561D01*
X60781828Y-149163561D02*
X60591352Y-149163561D01*
X60591352Y-149163561D02*
X60496114Y-149201657D01*
X60496114Y-149201657D02*
X60448495Y-149239752D01*
X60448495Y-149239752D02*
X60400876Y-149315942D01*
X60400876Y-149315942D02*
X60400876Y-149544514D01*
X60400876Y-149544514D02*
X60448495Y-149620704D01*
X60448495Y-149620704D02*
X60496114Y-149658800D01*
X60496114Y-149658800D02*
X60591352Y-149696895D01*
X60591352Y-149696895D02*
X60781828Y-149696895D01*
X60781828Y-149696895D02*
X60877066Y-149658800D01*
X60067542Y-149163561D02*
X59829447Y-149696895D01*
X59591352Y-149163561D02*
X59829447Y-149696895D01*
X59829447Y-149696895D02*
X59924685Y-149887371D01*
X59924685Y-149887371D02*
X59972304Y-149925466D01*
X59972304Y-149925466D02*
X60067542Y-149963561D01*
X58496113Y-149658800D02*
X58400875Y-149696895D01*
X58400875Y-149696895D02*
X58210399Y-149696895D01*
X58210399Y-149696895D02*
X58115161Y-149658800D01*
X58115161Y-149658800D02*
X58067542Y-149582609D01*
X58067542Y-149582609D02*
X58067542Y-149544514D01*
X58067542Y-149544514D02*
X58115161Y-149468323D01*
X58115161Y-149468323D02*
X58210399Y-149430228D01*
X58210399Y-149430228D02*
X58353256Y-149430228D01*
X58353256Y-149430228D02*
X58448494Y-149392133D01*
X58448494Y-149392133D02*
X58496113Y-149315942D01*
X58496113Y-149315942D02*
X58496113Y-149277847D01*
X58496113Y-149277847D02*
X58448494Y-149201657D01*
X58448494Y-149201657D02*
X58353256Y-149163561D01*
X58353256Y-149163561D02*
X58210399Y-149163561D01*
X58210399Y-149163561D02*
X58115161Y-149201657D01*
X57638970Y-149696895D02*
X57638970Y-148896895D01*
X57210399Y-149696895D02*
X57210399Y-149277847D01*
X57210399Y-149277847D02*
X57258018Y-149201657D01*
X57258018Y-149201657D02*
X57353256Y-149163561D01*
X57353256Y-149163561D02*
X57496113Y-149163561D01*
X57496113Y-149163561D02*
X57591351Y-149201657D01*
X57591351Y-149201657D02*
X57638970Y-149239752D01*
X56734208Y-149696895D02*
X56734208Y-149163561D01*
X56734208Y-149239752D02*
X56686589Y-149201657D01*
X56686589Y-149201657D02*
X56591351Y-149163561D01*
X56591351Y-149163561D02*
X56448494Y-149163561D01*
X56448494Y-149163561D02*
X56353256Y-149201657D01*
X56353256Y-149201657D02*
X56305637Y-149277847D01*
X56305637Y-149277847D02*
X56305637Y-149696895D01*
X56305637Y-149277847D02*
X56258018Y-149201657D01*
X56258018Y-149201657D02*
X56162780Y-149163561D01*
X56162780Y-149163561D02*
X56019923Y-149163561D01*
X56019923Y-149163561D02*
X55924684Y-149201657D01*
X55924684Y-149201657D02*
X55877065Y-149277847D01*
X55877065Y-149277847D02*
X55877065Y-149696895D01*
X54972304Y-149163561D02*
X54972304Y-149696895D01*
X55400875Y-149163561D02*
X55400875Y-149582609D01*
X55400875Y-149582609D02*
X55353256Y-149658800D01*
X55353256Y-149658800D02*
X55258018Y-149696895D01*
X55258018Y-149696895D02*
X55115161Y-149696895D01*
X55115161Y-149696895D02*
X55019923Y-149658800D01*
X55019923Y-149658800D02*
X54972304Y-149620704D01*
X54067542Y-149163561D02*
X54067542Y-149811180D01*
X54067542Y-149811180D02*
X54115161Y-149887371D01*
X54115161Y-149887371D02*
X54162780Y-149925466D01*
X54162780Y-149925466D02*
X54258018Y-149963561D01*
X54258018Y-149963561D02*
X54400875Y-149963561D01*
X54400875Y-149963561D02*
X54496113Y-149925466D01*
X54067542Y-149658800D02*
X54162780Y-149696895D01*
X54162780Y-149696895D02*
X54353256Y-149696895D01*
X54353256Y-149696895D02*
X54448494Y-149658800D01*
X54448494Y-149658800D02*
X54496113Y-149620704D01*
X54496113Y-149620704D02*
X54543732Y-149544514D01*
X54543732Y-149544514D02*
X54543732Y-149315942D01*
X54543732Y-149315942D02*
X54496113Y-149239752D01*
X54496113Y-149239752D02*
X54448494Y-149201657D01*
X54448494Y-149201657D02*
X54353256Y-149163561D01*
X54353256Y-149163561D02*
X54162780Y-149163561D01*
X54162780Y-149163561D02*
X54067542Y-149201657D01*
X53162780Y-149696895D02*
X53162780Y-149277847D01*
X53162780Y-149277847D02*
X53210399Y-149201657D01*
X53210399Y-149201657D02*
X53305637Y-149163561D01*
X53305637Y-149163561D02*
X53496113Y-149163561D01*
X53496113Y-149163561D02*
X53591351Y-149201657D01*
X53162780Y-149658800D02*
X53258018Y-149696895D01*
X53258018Y-149696895D02*
X53496113Y-149696895D01*
X53496113Y-149696895D02*
X53591351Y-149658800D01*
X53591351Y-149658800D02*
X53638970Y-149582609D01*
X53638970Y-149582609D02*
X53638970Y-149506419D01*
X53638970Y-149506419D02*
X53591351Y-149430228D01*
X53591351Y-149430228D02*
X53496113Y-149392133D01*
X53496113Y-149392133D02*
X53258018Y-149392133D01*
X53258018Y-149392133D02*
X53162780Y-149354038D01*
D11*
X70434819Y-98349166D02*
X71149104Y-98349166D01*
X71149104Y-98349166D02*
X71291961Y-98301547D01*
X71291961Y-98301547D02*
X71387200Y-98206309D01*
X71387200Y-98206309D02*
X71434819Y-98063452D01*
X71434819Y-98063452D02*
X71434819Y-97968214D01*
X71434819Y-99349166D02*
X71434819Y-98777738D01*
X71434819Y-99063452D02*
X70434819Y-99063452D01*
X70434819Y-99063452D02*
X70577676Y-98968214D01*
X70577676Y-98968214D02*
X70672914Y-98872976D01*
X70672914Y-98872976D02*
X70720533Y-98777738D01*
D12*
%TO.C,J1*%
X64380000Y-104632500D02*
X65380000Y-104632500D01*
X64880000Y-103632500D02*
X64380000Y-104632500D01*
X65380000Y-104632500D02*
X64880000Y-103632500D01*
X70090000Y-94122500D02*
X70090000Y-103242500D01*
X61850000Y-101932500D02*
X61850000Y-103242500D01*
X70090000Y-103242500D02*
X49510000Y-103242500D01*
X68790000Y-95432500D02*
X68790000Y-101932500D01*
X68790000Y-101932500D02*
X61850000Y-101932500D01*
X57750000Y-103242500D02*
X57750000Y-101932500D01*
X57750000Y-101932500D02*
X57750000Y-101932500D01*
X57750000Y-101932500D02*
X50810000Y-101932500D01*
X50810000Y-95432500D02*
X68790000Y-95432500D01*
X50810000Y-101932500D02*
X50810000Y-95432500D01*
X49510000Y-94122500D02*
X70090000Y-94122500D01*
X49510000Y-103242500D02*
X49510000Y-94122500D01*
%TD*%
M02*
