M48
; DRILL file {KiCad 8.0.7} date 2025-01-06T00:47:12+0000
; FORMAT={-:-/ absolute / inch / decimal}
; #@! TF.CreationDate,2025-01-06T00:47:12+00:00
; #@! TF.GenerationSoftware,Kicad,Pcbnew,8.0.7
; #@! TF.FileFunction,Plated,1,2,PTH
FMAT,2
INCH
; #@! TA.AperFunction,Plated,PTH,ComponentDrill
T1C0.0315
; #@! TA.AperFunction,Plated,PTH,ComponentDrill
T2C0.0354
; #@! TA.AperFunction,Plated,PTH,ComponentDrill
T3C0.0394
; #@! TA.AperFunction,Plated,PTH,ComponentDrill
T4C0.0480
; #@! TA.AperFunction,Plated,PTH,ComponentDrill
T5C0.0559
; #@! TA.AperFunction,Plated,PTH,ComponentDrill
T6C0.0563
; #@! TA.AperFunction,Plated,PTH,ComponentDrill
T7C0.1181
; #@! TA.AperFunction,Plated,PTH,ComponentDrill
T8C0.1260
; #@! TA.AperFunction,Plated,PTH,ComponentDrill
T9C0.2362
%
G90
G05
T1
X1.998Y-4.3933
X1.998Y-4.7933
X2.0276Y-2.989
X2.0276Y-3.389
X2.1535Y-4.3031
X2.1535Y-4.5
X2.1535Y-4.5984
X2.1535Y-4.7953
X2.1752Y-2.989
X2.1752Y-3.389
X2.2984Y-4.1732
X2.2984Y-4.2732
X2.2984Y-4.3732
X2.2984Y-4.4732
X2.2984Y-4.5732
X2.2984Y-4.6732
X2.2984Y-4.7732
X2.311Y-3.0069
X2.311Y-3.1069
X2.311Y-3.2069
X2.311Y-3.3069
X2.311Y-3.4069
X2.311Y-3.5069
X2.311Y-3.6069
X2.4567Y-4.9142
X2.4567Y-5.3142
X2.4567Y-5.5906
X2.4567Y-5.9906
X2.4606Y-1.798
X2.4606Y-2.198
X2.4606Y-2.474
X2.4606Y-2.874
X2.5984Y-4.1732
X2.5984Y-4.2732
X2.5984Y-4.3732
X2.5984Y-4.4732
X2.5984Y-4.5732
X2.5984Y-4.6732
X2.5984Y-4.7732
X2.611Y-3.0069
X2.611Y-3.1069
X2.611Y-3.2069
X2.611Y-3.3069
X2.611Y-3.4069
X2.611Y-3.5069
X2.611Y-3.6069
X2.7559Y-2.9882
X2.7559Y-3.185
X2.7559Y-3.2835
X2.7559Y-3.4803
X2.7854Y-4.3913
X2.7854Y-4.7913
X2.8543Y-3.7795
X2.8543Y-4.0
X2.9232Y-4.3913
X2.9232Y-4.7913
X2.9331Y-2.989
X2.9331Y-3.389
X2.9528Y-3.7795
X2.9528Y-4.0
T2
X2.4106Y-5.4528
X2.4177Y-2.3386
X2.5106Y-5.4528
X2.5177Y-2.3386
T3
X2.1543Y-3.8351
X2.1543Y-3.9351
X2.2543Y-3.8351
X2.2543Y-3.9351
X2.3543Y-3.8351
X2.3543Y-3.9351
X2.4543Y-3.8351
X2.4543Y-3.9351
X2.5543Y-3.8351
X2.5543Y-3.9351
T4
X2.1339Y-4.9311
X2.1339Y-5.5217
X2.1358Y-1.815
X2.1358Y-2.4055
X2.7835Y-4.9311
X2.7835Y-5.5217
X2.7854Y-1.815
X2.7854Y-2.4055
T5
X2.1339Y-5.0531
X2.1339Y-5.6437
X2.1358Y-1.937
X2.1358Y-2.5276
X2.7835Y-5.0531
X2.7835Y-5.6437
X2.7854Y-1.937
X2.7854Y-2.5276
T6
X2.1339Y-5.3799
X2.1339Y-5.9705
X2.1358Y-2.2638
X2.1358Y-2.8543
X2.7835Y-5.3799
X2.7835Y-5.9705
X2.7854Y-2.2638
X2.7854Y-2.8543
T7
X3.7295Y-5.4528
X3.7323Y-2.3346
T9
X3.4055Y-2.6591
X3.4055Y-5.1878
X3.4055Y-5.7783
X3.4075Y-2.0677
X4.0551Y-5.1878
X4.0551Y-5.7783
X4.0571Y-2.0677
X4.0571Y-2.6583
T8
G00X3.9976Y-1.4923
M15
G01X4.0685Y-1.4923
M16
G05
G00X3.9976Y-6.3152
M15
G01X4.0685Y-6.3152
M16
G05
M30
