%TF.GenerationSoftware,KiCad,Pcbnew,8.0.7*%
%TF.CreationDate,2025-01-06T00:46:59+00:00*%
%TF.ProjectId,multbuf,6d756c74-6275-4662-9e6b-696361645f70,rev?*%
%TF.SameCoordinates,Original*%
%TF.FileFunction,Copper,L1,Top*%
%TF.FilePolarity,Positive*%
%FSLAX46Y46*%
G04 Gerber Fmt 4.6, Leading zero omitted, Abs format (unit mm)*
G04 Created by KiCad (PCBNEW 8.0.7) date 2025-01-06 00:46:59*
%MOMM*%
%LPD*%
G01*
G04 APERTURE LIST*
G04 Aperture macros list*
%AMRoundRect*
0 Rectangle with rounded corners*
0 $1 Rounding radius*
0 $2 $3 $4 $5 $6 $7 $8 $9 X,Y pos of 4 corners*
0 Add a 4 corners polygon primitive as box body*
4,1,4,$2,$3,$4,$5,$6,$7,$8,$9,$2,$3,0*
0 Add four circle primitives for the rounded corners*
1,1,$1+$1,$2,$3*
1,1,$1+$1,$4,$5*
1,1,$1+$1,$6,$7*
1,1,$1+$1,$8,$9*
0 Add four rect primitives between the rounded corners*
20,1,$1+$1,$2,$3,$4,$5,0*
20,1,$1+$1,$4,$5,$6,$7,0*
20,1,$1+$1,$6,$7,$8,$9,0*
20,1,$1+$1,$8,$9,$2,$3,0*%
%AMOutline5P*
0 Free polygon, 5 corners , with rotation*
0 The origin of the aperture is its center*
0 number of corners: always 5*
0 $1 to $10 corner X, Y*
0 $11 Rotation angle, in degrees counterclockwise*
0 create outline with 5 corners*
4,1,5,$1,$2,$3,$4,$5,$6,$7,$8,$9,$10,$1,$2,$11*%
%AMOutline6P*
0 Free polygon, 6 corners , with rotation*
0 The origin of the aperture is its center*
0 number of corners: always 6*
0 $1 to $12 corner X, Y*
0 $13 Rotation angle, in degrees counterclockwise*
0 create outline with 6 corners*
4,1,6,$1,$2,$3,$4,$5,$6,$7,$8,$9,$10,$11,$12,$1,$2,$13*%
%AMOutline7P*
0 Free polygon, 7 corners , with rotation*
0 The origin of the aperture is its center*
0 number of corners: always 7*
0 $1 to $14 corner X, Y*
0 $15 Rotation angle, in degrees counterclockwise*
0 create outline with 7 corners*
4,1,7,$1,$2,$3,$4,$5,$6,$7,$8,$9,$10,$11,$12,$13,$14,$1,$2,$15*%
%AMOutline8P*
0 Free polygon, 8 corners , with rotation*
0 The origin of the aperture is its center*
0 number of corners: always 8*
0 $1 to $16 corner X, Y*
0 $17 Rotation angle, in degrees counterclockwise*
0 create outline with 8 corners*
4,1,8,$1,$2,$3,$4,$5,$6,$7,$8,$9,$10,$11,$12,$13,$14,$15,$16,$1,$2,$17*%
G04 Aperture macros list end*
%TA.AperFunction,ComponentPad*%
%ADD10RoundRect,0.250000X0.600000X-0.600000X0.600000X0.600000X-0.600000X0.600000X-0.600000X-0.600000X0*%
%TD*%
%TA.AperFunction,ComponentPad*%
%ADD11C,1.700000*%
%TD*%
%TA.AperFunction,ComponentPad*%
%ADD12C,1.600000*%
%TD*%
%TA.AperFunction,ComponentPad*%
%ADD13O,1.600000X1.600000*%
%TD*%
%TA.AperFunction,ComponentPad*%
%ADD14R,1.600000X1.600000*%
%TD*%
%TA.AperFunction,ComponentPad*%
%ADD15R,1.930000X1.830000*%
%TD*%
%TA.AperFunction,ComponentPad*%
%ADD16C,2.130000*%
%TD*%
%TA.AperFunction,ComponentPad*%
%ADD17C,3.100000*%
%TD*%
%TA.AperFunction,ComponentPad*%
%ADD18Outline6P,-4.500000X4.500000X2.700000X4.500000X4.500000X2.700000X4.500000X-4.500000X-2.700000X-4.500000X-4.500000X-2.700000X0.000000*%
%TD*%
%TA.AperFunction,ComponentPad*%
%ADD19C,6.300000*%
%TD*%
%TA.AperFunction,ComponentPad*%
%ADD20R,1.800000X1.800000*%
%TD*%
%TA.AperFunction,ComponentPad*%
%ADD21C,1.800000*%
%TD*%
%TA.AperFunction,ComponentPad*%
%ADD22O,5.500000X3.700000*%
%TD*%
%TA.AperFunction,Conductor*%
%ADD23C,0.500000*%
%TD*%
G04 APERTURE END LIST*
D10*
%TO.P,J1,1,Pin_1*%
%TO.N,-12VA*%
X64880000Y-99952500D03*
D11*
%TO.P,J1,2,Pin_2*%
X64880000Y-97412500D03*
%TO.P,J1,3,Pin_3*%
%TO.N,GND*%
X62340000Y-99952500D03*
%TO.P,J1,4,Pin_4*%
X62340000Y-97412500D03*
%TO.P,J1,5,Pin_5*%
X59800000Y-99952500D03*
%TO.P,J1,6,Pin_6*%
X59800000Y-97412500D03*
%TO.P,J1,7,Pin_7*%
X57260000Y-99952500D03*
%TO.P,J1,8,Pin_8*%
X57260000Y-97412500D03*
%TO.P,J1,9,Pin_9*%
%TO.N,+12VA*%
X54720000Y-99952500D03*
%TO.P,J1,10,Pin_10*%
X54720000Y-97412500D03*
%TD*%
D12*
%TO.P,C5,1*%
%TO.N,+12VA*%
X54700000Y-116800000D03*
%TO.P,C5,2*%
%TO.N,GND*%
X54700000Y-121800000D03*
%TD*%
D13*
%TO.P,U1,14*%
%TO.N,Net-(U1D--)*%
X66320000Y-76375000D03*
%TO.P,U1,13,-*%
X66320000Y-78915000D03*
%TO.P,U1,12,+*%
%TO.N,Net-(U1A-+)*%
X66320000Y-81455000D03*
%TO.P,U1,11,V-*%
%TO.N,-12VA*%
X66320000Y-83995000D03*
%TO.P,U1,10,+*%
%TO.N,Net-(U1A-+)*%
X66320000Y-86535000D03*
%TO.P,U1,9,-*%
%TO.N,Net-(U1C--)*%
X66320000Y-89075000D03*
%TO.P,U1,8*%
X66320000Y-91615000D03*
%TO.P,U1,7*%
%TO.N,Net-(U1B--)*%
X58700000Y-91615000D03*
%TO.P,U1,6,-*%
X58700000Y-89075000D03*
%TO.P,U1,5,+*%
%TO.N,Net-(U1A-+)*%
X58700000Y-86535000D03*
%TO.P,U1,4,V+*%
%TO.N,+12VA*%
X58700000Y-83995000D03*
%TO.P,U1,3,+*%
%TO.N,Net-(U1A-+)*%
X58700000Y-81455000D03*
%TO.P,U1,2,-*%
%TO.N,Net-(U1A--)*%
X58700000Y-78915000D03*
D14*
%TO.P,U1,1*%
X58700000Y-76375000D03*
%TD*%
D15*
%TO.P,J6,S*%
%TO.N,GND*%
X54200000Y-125250000D03*
D16*
%TO.P,J6,T*%
%TO.N,Net-(U2A-+)*%
X54200000Y-136650000D03*
%TO.P,J6,TN*%
%TO.N,N/C*%
X54200000Y-128350000D03*
%TD*%
D17*
%TO.P,D1Hp,1,KA*%
%TO.N,GND*%
X94730000Y-138500000D03*
%TD*%
D12*
%TO.P,R6,1*%
%TO.N,Net-(U2A-+)*%
X50750000Y-111590000D03*
D13*
%TO.P,R6,2*%
%TO.N,GND*%
X50750000Y-121750000D03*
%TD*%
D15*
%TO.P,J9,S*%
%TO.N,GND*%
X70700000Y-140250000D03*
D16*
%TO.P,J9,T*%
%TO.N,Net-(J9-PadT)*%
X70700000Y-151650000D03*
%TO.P,J9,TN*%
%TO.N,N/C*%
X70700000Y-143350000D03*
%TD*%
D18*
%TO.P,JJ1,1*%
%TO.N,N/C*%
X86550000Y-52520000D03*
%TD*%
D19*
%TO.P,JJ2,1*%
%TO.N,N/C*%
X103050000Y-52520000D03*
%TD*%
%TO.P,JJ3,1*%
%TO.N,N/C*%
X86500000Y-146770000D03*
%TD*%
D15*
%TO.P,J7,S*%
%TO.N,GND*%
X70700000Y-125250000D03*
D16*
%TO.P,J7,T*%
%TO.N,Net-(J7-PadT)*%
X70700000Y-136650000D03*
%TO.P,J7,TN*%
%TO.N,N/C*%
X70700000Y-128350000D03*
%TD*%
D15*
%TO.P,J8,S*%
%TO.N,GND*%
X54200000Y-140250000D03*
D16*
%TO.P,J8,T*%
%TO.N,Net-(J8-PadT)*%
X54200000Y-151650000D03*
%TO.P,J8,TN*%
%TO.N,N/C*%
X54200000Y-143350000D03*
%TD*%
D18*
%TO.P,JJ1,1*%
%TO.N,N/C*%
X86500000Y-131770000D03*
%TD*%
D19*
%TO.P,JJ3,1*%
%TO.N,N/C*%
X86500000Y-67540000D03*
%TD*%
%TO.P,JJ4,1*%
%TO.N,N/C*%
X103000000Y-146770000D03*
%TD*%
D14*
%TO.P,C1,1*%
%TO.N,GND*%
X72500000Y-96000000D03*
D12*
%TO.P,C1,2*%
%TO.N,-12VA*%
X75000000Y-96000000D03*
%TD*%
D20*
%TO.P,D2,1,KA*%
%TO.N,GND*%
X61230000Y-138500000D03*
D21*
%TO.P,D2,2,AK*%
%TO.N,Net-(D2-AK)*%
X63770000Y-138500000D03*
%TD*%
D15*
%TO.P,J3,S*%
%TO.N,GND*%
X70750000Y-46100000D03*
D16*
%TO.P,J3,T*%
%TO.N,Net-(J3-PadT)*%
X70750000Y-57500000D03*
%TO.P,J3,TN*%
%TO.N,N/C*%
X70750000Y-49200000D03*
%TD*%
D12*
%TO.P,C4,2*%
%TO.N,-12VA*%
X70000000Y-83400000D03*
%TO.P,C4,1*%
%TO.N,GND*%
X70000000Y-88400000D03*
%TD*%
D17*
%TO.P,D1Hp,1,KA*%
%TO.N,GND*%
X94800000Y-59300000D03*
%TD*%
D12*
%TO.P,R10,1*%
%TO.N,Net-(U2C--)*%
X70750000Y-111540000D03*
D13*
%TO.P,R10,2*%
%TO.N,Net-(J9-PadT)*%
X70750000Y-121700000D03*
%TD*%
D15*
%TO.P,J5,S*%
%TO.N,GND*%
X70750000Y-61100000D03*
D16*
%TO.P,J5,T*%
%TO.N,Net-(J5-PadT)*%
X70750000Y-72500000D03*
%TO.P,J5,TN*%
%TO.N,N/C*%
X70750000Y-64200000D03*
%TD*%
D12*
%TO.P,R3,1*%
%TO.N,Net-(U1A--)*%
X62500000Y-55830000D03*
D13*
%TO.P,R3,2*%
%TO.N,Net-(J3-PadT)*%
X62500000Y-45670000D03*
%TD*%
%TO.P,R9,2*%
%TO.N,Net-(J8-PadT)*%
X62400000Y-152160000D03*
D12*
%TO.P,R9,1*%
%TO.N,Net-(U2B--)*%
X62400000Y-142000000D03*
%TD*%
%TO.P,C6,1*%
%TO.N,GND*%
X54700000Y-114300000D03*
%TO.P,C6,2*%
%TO.N,-12VA*%
X54700000Y-109300000D03*
%TD*%
%TO.P,R8,1*%
%TO.N,Net-(U2A--)*%
X74250000Y-111540000D03*
D13*
%TO.P,R8,2*%
%TO.N,Net-(J7-PadT)*%
X74250000Y-121700000D03*
%TD*%
D12*
%TO.P,C3,1*%
%TO.N,+12VA*%
X70000000Y-80900000D03*
%TO.P,C3,2*%
%TO.N,GND*%
X70000000Y-75900000D03*
%TD*%
%TO.P,R1,1*%
%TO.N,Net-(U1A-+)*%
X51500000Y-86080000D03*
D13*
%TO.P,R1,2*%
%TO.N,GND*%
X51500000Y-75920000D03*
%TD*%
D12*
%TO.P,R7,1*%
%TO.N,Net-(U2D--)*%
X62400000Y-124820000D03*
D13*
%TO.P,R7,2*%
%TO.N,Net-(D2-AK)*%
X62400000Y-134980000D03*
%TD*%
D15*
%TO.P,J2,S*%
%TO.N,GND*%
X54250000Y-46100000D03*
D16*
%TO.P,J2,T*%
%TO.N,Net-(U1A-+)*%
X54250000Y-57500000D03*
%TO.P,J2,TN*%
%TO.N,N/C*%
X54250000Y-49200000D03*
%TD*%
D14*
%TO.P,U2,1*%
%TO.N,Net-(U2A--)*%
X58380000Y-106000000D03*
D13*
%TO.P,U2,2,-*%
X58380000Y-108540000D03*
%TO.P,U2,3,+*%
%TO.N,Net-(U2A-+)*%
X58380000Y-111080000D03*
%TO.P,U2,4,V+*%
%TO.N,+12VA*%
X58380000Y-113620000D03*
%TO.P,U2,5,+*%
%TO.N,Net-(U2A-+)*%
X58380000Y-116160000D03*
%TO.P,U2,6,-*%
%TO.N,Net-(U2B--)*%
X58380000Y-118700000D03*
%TO.P,U2,7*%
X58380000Y-121240000D03*
%TO.P,U2,8*%
%TO.N,Net-(U2C--)*%
X66000000Y-121240000D03*
%TO.P,U2,9,-*%
X66000000Y-118700000D03*
%TO.P,U2,10,+*%
%TO.N,Net-(U2A-+)*%
X66000000Y-116160000D03*
%TO.P,U2,11,V-*%
%TO.N,-12VA*%
X66000000Y-113620000D03*
%TO.P,U2,12,+*%
%TO.N,Net-(U2A-+)*%
X66000000Y-111080000D03*
%TO.P,U2,13,-*%
%TO.N,Net-(U2D--)*%
X66000000Y-108540000D03*
%TO.P,U2,14*%
X66000000Y-106000000D03*
%TD*%
D19*
%TO.P,JJ2,1*%
%TO.N,N/C*%
X103000000Y-131770000D03*
%TD*%
%TO.P,JJ4,1*%
%TO.N,N/C*%
X103050000Y-67520000D03*
%TD*%
D15*
%TO.P,J4,S*%
%TO.N,GND*%
X54250000Y-61100000D03*
D16*
%TO.P,J4,T*%
%TO.N,Net-(J4-PadT)*%
X54250000Y-72500000D03*
%TO.P,J4,TN*%
%TO.N,N/C*%
X54250000Y-64200000D03*
%TD*%
D12*
%TO.P,R2,1*%
%TO.N,Net-(U1D--)*%
X62500000Y-73000000D03*
D13*
%TO.P,R2,2*%
%TO.N,Net-(D1-AK)*%
X62500000Y-62840000D03*
%TD*%
D12*
%TO.P,R4,1*%
%TO.N,Net-(U1B--)*%
X55250000Y-86080000D03*
D13*
%TO.P,R4,2*%
%TO.N,Net-(J4-PadT)*%
X55250000Y-75920000D03*
%TD*%
D12*
%TO.P,R5,1*%
%TO.N,Net-(U1C--)*%
X74500000Y-86080000D03*
D13*
%TO.P,R5,2*%
%TO.N,Net-(J5-PadT)*%
X74500000Y-75920000D03*
%TD*%
D20*
%TO.P,D1,1,KA*%
%TO.N,GND*%
X61410000Y-59400000D03*
D21*
%TO.P,D1,2,AK*%
%TO.N,Net-(D1-AK)*%
X63950000Y-59400000D03*
%TD*%
D14*
%TO.P,C2,1*%
%TO.N,+12VA*%
X72500000Y-101600000D03*
D12*
%TO.P,C2,2*%
%TO.N,GND*%
X75000000Y-101600000D03*
%TD*%
D22*
%TO.P,,1*%
%TO.N,N/C*%
X102440000Y-37905000D03*
%TD*%
%TO.P,,1*%
%TO.N,N/C*%
X102440000Y-160405000D03*
%TD*%
D23*
%TO.N,Net-(U2A-+)*%
X54200000Y-136650000D02*
X52000000Y-134450000D01*
X52000000Y-134450000D02*
X52000000Y-112840000D01*
X52000000Y-112840000D02*
X50750000Y-111590000D01*
X54200000Y-136650000D02*
X57130000Y-133720000D01*
X57130000Y-133720000D02*
X57130000Y-117410000D01*
X57130000Y-117410000D02*
X58380000Y-116160000D01*
%TO.N,Net-(U2A--)*%
X58380000Y-108540000D02*
X58380000Y-106000000D01*
X74250000Y-111540000D02*
X69960000Y-107250000D01*
X69960000Y-107250000D02*
X59630000Y-107250000D01*
X59630000Y-107250000D02*
X58380000Y-106000000D01*
%TO.N,Net-(U2C--)*%
X66000000Y-118700000D02*
X70750000Y-113950000D01*
X70750000Y-113950000D02*
X70750000Y-111540000D01*
X66000000Y-118700000D02*
X66000000Y-121240000D01*
%TO.N,Net-(U2B--)*%
X58380000Y-118700000D02*
X58380000Y-121240000D01*
X62400000Y-142000000D02*
X61268630Y-142000000D01*
X61268630Y-142000000D02*
X58380000Y-139111370D01*
X58380000Y-139111370D02*
X58380000Y-121240000D01*
%TO.N,Net-(J8-PadT)*%
X54200000Y-151650000D02*
X61890000Y-151650000D01*
X61890000Y-151650000D02*
X62400000Y-152160000D01*
%TO.N,Net-(J9-PadT)*%
X70700000Y-151650000D02*
X73500000Y-148850000D01*
X70072466Y-138165000D02*
X69185000Y-137277534D01*
X73500000Y-148850000D02*
X73500000Y-140337466D01*
X73500000Y-140337466D02*
X71327534Y-138165000D01*
X71327534Y-138165000D02*
X70072466Y-138165000D01*
X69185000Y-137277534D02*
X69185000Y-135720289D01*
X69185000Y-135720289D02*
X72600000Y-132305289D01*
X72600000Y-132305289D02*
X72600000Y-123550000D01*
X72600000Y-123550000D02*
X70750000Y-121700000D01*
%TO.N,Net-(J7-PadT)*%
X70700000Y-136650000D02*
X74250000Y-133100000D01*
X74250000Y-133100000D02*
X74250000Y-121700000D01*
%TO.N,Net-(U2D--)*%
X62400000Y-124820000D02*
X62400000Y-112140000D01*
X62400000Y-112140000D02*
X66000000Y-108540000D01*
%TO.N,Net-(D2-AK)*%
X63770000Y-138500000D02*
X63770000Y-136350000D01*
X63770000Y-136350000D02*
X62400000Y-134980000D01*
%TO.N,+12VA*%
X54700000Y-116800000D02*
X55200000Y-116800000D01*
X55200000Y-116800000D02*
X58380000Y-113620000D01*
X54720000Y-99952500D02*
X53450000Y-101222500D01*
X53450000Y-101222500D02*
X53450000Y-115550000D01*
X53450000Y-115550000D02*
X54700000Y-116800000D01*
X72500000Y-101600000D02*
X56367500Y-101600000D01*
X56367500Y-101600000D02*
X54720000Y-99952500D01*
%TO.N,Net-(U1A-+)*%
X49100000Y-62650000D02*
X49100000Y-86600000D01*
X54250000Y-57500000D02*
X49100000Y-62650000D01*
X49100000Y-86600000D02*
X49500000Y-86600000D01*
X49500000Y-86600000D02*
X50020000Y-86080000D01*
X50020000Y-86080000D02*
X51500000Y-86080000D01*
%TO.N,Net-(J3-PadT)*%
X70750000Y-57500000D02*
X62500000Y-49250000D01*
X62500000Y-49250000D02*
X62500000Y-45670000D01*
%TO.N,Net-(J4-PadT)*%
X55250000Y-75920000D02*
X55250000Y-73500000D01*
X55250000Y-73500000D02*
X54250000Y-72500000D01*
%TO.N,Net-(U1B--)*%
X58700000Y-89075000D02*
X58245000Y-89075000D01*
X58245000Y-89075000D02*
X55250000Y-86080000D01*
X58700000Y-91615000D02*
X58700000Y-89075000D01*
%TO.N,Net-(U1C--)*%
X66320000Y-91615000D02*
X66320000Y-89075000D01*
%TO.N,Net-(J5-PadT)*%
X74500000Y-75920000D02*
X71080000Y-72500000D01*
X71080000Y-72500000D02*
X70750000Y-72500000D01*
%TO.N,+12VA*%
X70000000Y-80900000D02*
X68200000Y-82700000D01*
X68200000Y-82700000D02*
X66625050Y-82700000D01*
X66625050Y-82700000D02*
X66580050Y-82745000D01*
X66580050Y-82745000D02*
X59950000Y-82745000D01*
X59950000Y-82745000D02*
X58700000Y-83995000D01*
%TO.N,Net-(U1A--)*%
X58700000Y-76375000D02*
X58700000Y-59630000D01*
X58700000Y-59630000D02*
X62500000Y-55830000D01*
X58700000Y-78915000D02*
X58700000Y-76375000D01*
%TO.N,Net-(U1D--)*%
X66320000Y-76375000D02*
X66320000Y-78915000D01*
X62500000Y-73000000D02*
X65875000Y-76375000D01*
X65875000Y-76375000D02*
X66320000Y-76375000D01*
%TO.N,Net-(D1-AK)*%
X63950000Y-59400000D02*
X63950000Y-61390000D01*
X63950000Y-61390000D02*
X62500000Y-62840000D01*
%TO.N,+12VA*%
X54720000Y-97412500D02*
X59950000Y-92182500D01*
X59950000Y-92182500D02*
X59950000Y-85245000D01*
X59950000Y-85245000D02*
X58700000Y-83995000D01*
%TO.N,-12VA*%
X70000000Y-83400000D02*
X66915000Y-83400000D01*
X66915000Y-83400000D02*
X66320000Y-83995000D01*
X75000000Y-96000000D02*
X75000000Y-91632233D01*
X75000000Y-91632233D02*
X70000000Y-86632233D01*
X70000000Y-86632233D02*
X70000000Y-83400000D01*
X64880000Y-97412500D02*
X73587500Y-97412500D01*
X73587500Y-97412500D02*
X75000000Y-96000000D01*
X64880000Y-99952500D02*
X64880000Y-97412500D01*
%TO.N,+12VA*%
X54720000Y-99952500D02*
X54720000Y-97412500D01*
%TD*%
M02*
