%TF.GenerationSoftware,KiCad,Pcbnew,8.0.7*%
%TF.CreationDate,2025-01-06T00:46:59+00:00*%
%TF.ProjectId,multbuf,6d756c74-6275-4662-9e6b-696361645f70,rev?*%
%TF.SameCoordinates,Original*%
%TF.FileFunction,Legend,Top*%
%TF.FilePolarity,Positive*%
%FSLAX46Y46*%
G04 Gerber Fmt 4.6, Leading zero omitted, Abs format (unit mm)*
G04 Created by KiCad (PCBNEW 8.0.7) date 2025-01-06 00:46:59*
%MOMM*%
%LPD*%
G01*
G04 APERTURE LIST*
%ADD10C,0.100000*%
%ADD11C,0.300000*%
%ADD12C,0.150000*%
%ADD13C,0.000000*%
%ADD14C,0.120000*%
G04 APERTURE END LIST*
D10*
G36*
X83278227Y-141551053D02*
G01*
X83020799Y-141535114D01*
X82778827Y-141487297D01*
X82528096Y-141396780D01*
X82433147Y-141349553D01*
X82215379Y-141209185D01*
X82027665Y-141039956D01*
X81870005Y-140841866D01*
X81842079Y-140798785D01*
X81727447Y-140569116D01*
X81655271Y-140318218D01*
X81626613Y-140074261D01*
X81624703Y-139989120D01*
X81624703Y-138970628D01*
X81641898Y-138721035D01*
X81701336Y-138464103D01*
X81803232Y-138228637D01*
X81842079Y-138162184D01*
X81993729Y-137957678D01*
X82175432Y-137782272D01*
X82387189Y-137635964D01*
X82433147Y-137610195D01*
X82676245Y-137503935D01*
X82938424Y-137437031D01*
X83190700Y-137410466D01*
X83278227Y-137408695D01*
X85423900Y-137408695D01*
X85423900Y-138112114D01*
X83278227Y-138112114D01*
X83032152Y-138143560D01*
X82814166Y-138237899D01*
X82622292Y-138394982D01*
X82494207Y-138572512D01*
X82403684Y-138806799D01*
X82378192Y-139034131D01*
X82378192Y-139206322D01*
X85423900Y-139206322D01*
X85423900Y-139831584D01*
X82378192Y-139831584D01*
X82378192Y-139991563D01*
X82414900Y-140242594D01*
X82494207Y-140420209D01*
X82652546Y-140613323D01*
X82814166Y-140730397D01*
X83046709Y-140821874D01*
X83278227Y-140847634D01*
X85423900Y-140847634D01*
X85423900Y-141551053D01*
X83278227Y-141551053D01*
G37*
G36*
X83438227Y-62261053D02*
G01*
X83180799Y-62245114D01*
X82938827Y-62197297D01*
X82688096Y-62106780D01*
X82593147Y-62059553D01*
X82375379Y-61919185D01*
X82187665Y-61749956D01*
X82030005Y-61551866D01*
X82002079Y-61508785D01*
X81887447Y-61279116D01*
X81815271Y-61028218D01*
X81786613Y-60784261D01*
X81784703Y-60699120D01*
X81784703Y-59680628D01*
X81801898Y-59431035D01*
X81861336Y-59174103D01*
X81963232Y-58938637D01*
X82002079Y-58872184D01*
X82153729Y-58667678D01*
X82335432Y-58492272D01*
X82547189Y-58345964D01*
X82593147Y-58320195D01*
X82836245Y-58213935D01*
X83098424Y-58147031D01*
X83350700Y-58120466D01*
X83438227Y-58118695D01*
X85583900Y-58118695D01*
X85583900Y-58822114D01*
X83438227Y-58822114D01*
X83192152Y-58853560D01*
X82974166Y-58947899D01*
X82782292Y-59104982D01*
X82654207Y-59282512D01*
X82563684Y-59516799D01*
X82538192Y-59744131D01*
X82538192Y-59916322D01*
X85583900Y-59916322D01*
X85583900Y-60541584D01*
X82538192Y-60541584D01*
X82538192Y-60701563D01*
X82574900Y-60952594D01*
X82654207Y-61130209D01*
X82812546Y-61323323D01*
X82974166Y-61440397D01*
X83206709Y-61531874D01*
X83438227Y-61557634D01*
X85583900Y-61557634D01*
X85583900Y-62261053D01*
X83438227Y-62261053D01*
G37*
D11*
X93993558Y-134096780D02*
X95517368Y-134096780D01*
X94755463Y-134858685D02*
X94755463Y-133334876D01*
X95517368Y-135239638D02*
X93993558Y-135239638D01*
X94073558Y-54996780D02*
X95597368Y-54996780D01*
X94835463Y-55758685D02*
X94835463Y-54234876D01*
X95597368Y-56139638D02*
X94073558Y-56139638D01*
D12*
X55059580Y-119466666D02*
X55107200Y-119514285D01*
X55107200Y-119514285D02*
X55154819Y-119657142D01*
X55154819Y-119657142D02*
X55154819Y-119752380D01*
X55154819Y-119752380D02*
X55107200Y-119895237D01*
X55107200Y-119895237D02*
X55011961Y-119990475D01*
X55011961Y-119990475D02*
X54916723Y-120038094D01*
X54916723Y-120038094D02*
X54726247Y-120085713D01*
X54726247Y-120085713D02*
X54583390Y-120085713D01*
X54583390Y-120085713D02*
X54392914Y-120038094D01*
X54392914Y-120038094D02*
X54297676Y-119990475D01*
X54297676Y-119990475D02*
X54202438Y-119895237D01*
X54202438Y-119895237D02*
X54154819Y-119752380D01*
X54154819Y-119752380D02*
X54154819Y-119657142D01*
X54154819Y-119657142D02*
X54202438Y-119514285D01*
X54202438Y-119514285D02*
X54250057Y-119466666D01*
X54154819Y-118561904D02*
X54154819Y-119038094D01*
X54154819Y-119038094D02*
X54631009Y-119085713D01*
X54631009Y-119085713D02*
X54583390Y-119038094D01*
X54583390Y-119038094D02*
X54535771Y-118942856D01*
X54535771Y-118942856D02*
X54535771Y-118704761D01*
X54535771Y-118704761D02*
X54583390Y-118609523D01*
X54583390Y-118609523D02*
X54631009Y-118561904D01*
X54631009Y-118561904D02*
X54726247Y-118514285D01*
X54726247Y-118514285D02*
X54964342Y-118514285D01*
X54964342Y-118514285D02*
X55059580Y-118561904D01*
X55059580Y-118561904D02*
X55107200Y-118609523D01*
X55107200Y-118609523D02*
X55154819Y-118704761D01*
X55154819Y-118704761D02*
X55154819Y-118942856D01*
X55154819Y-118942856D02*
X55107200Y-119038094D01*
X55107200Y-119038094D02*
X55059580Y-119085713D01*
X61808095Y-77369819D02*
X61808095Y-78179342D01*
X61808095Y-78179342D02*
X61855714Y-78274580D01*
X61855714Y-78274580D02*
X61903333Y-78322200D01*
X61903333Y-78322200D02*
X61998571Y-78369819D01*
X61998571Y-78369819D02*
X62189047Y-78369819D01*
X62189047Y-78369819D02*
X62284285Y-78322200D01*
X62284285Y-78322200D02*
X62331904Y-78274580D01*
X62331904Y-78274580D02*
X62379523Y-78179342D01*
X62379523Y-78179342D02*
X62379523Y-77369819D01*
X63379523Y-78369819D02*
X62808095Y-78369819D01*
X63093809Y-78369819D02*
X63093809Y-77369819D01*
X63093809Y-77369819D02*
X62998571Y-77512676D01*
X62998571Y-77512676D02*
X62903333Y-77607914D01*
X62903333Y-77607914D02*
X62808095Y-77655533D01*
X49836666Y-125784819D02*
X49836666Y-126499104D01*
X49836666Y-126499104D02*
X49789047Y-126641961D01*
X49789047Y-126641961D02*
X49693809Y-126737200D01*
X49693809Y-126737200D02*
X49550952Y-126784819D01*
X49550952Y-126784819D02*
X49455714Y-126784819D01*
X50741428Y-125784819D02*
X50550952Y-125784819D01*
X50550952Y-125784819D02*
X50455714Y-125832438D01*
X50455714Y-125832438D02*
X50408095Y-125880057D01*
X50408095Y-125880057D02*
X50312857Y-126022914D01*
X50312857Y-126022914D02*
X50265238Y-126213390D01*
X50265238Y-126213390D02*
X50265238Y-126594342D01*
X50265238Y-126594342D02*
X50312857Y-126689580D01*
X50312857Y-126689580D02*
X50360476Y-126737200D01*
X50360476Y-126737200D02*
X50455714Y-126784819D01*
X50455714Y-126784819D02*
X50646190Y-126784819D01*
X50646190Y-126784819D02*
X50741428Y-126737200D01*
X50741428Y-126737200D02*
X50789047Y-126689580D01*
X50789047Y-126689580D02*
X50836666Y-126594342D01*
X50836666Y-126594342D02*
X50836666Y-126356247D01*
X50836666Y-126356247D02*
X50789047Y-126261009D01*
X50789047Y-126261009D02*
X50741428Y-126213390D01*
X50741428Y-126213390D02*
X50646190Y-126165771D01*
X50646190Y-126165771D02*
X50455714Y-126165771D01*
X50455714Y-126165771D02*
X50360476Y-126213390D01*
X50360476Y-126213390D02*
X50312857Y-126261009D01*
X50312857Y-126261009D02*
X50265238Y-126356247D01*
X51454819Y-118766666D02*
X50978628Y-119099999D01*
X51454819Y-119338094D02*
X50454819Y-119338094D01*
X50454819Y-119338094D02*
X50454819Y-118957142D01*
X50454819Y-118957142D02*
X50502438Y-118861904D01*
X50502438Y-118861904D02*
X50550057Y-118814285D01*
X50550057Y-118814285D02*
X50645295Y-118766666D01*
X50645295Y-118766666D02*
X50788152Y-118766666D01*
X50788152Y-118766666D02*
X50883390Y-118814285D01*
X50883390Y-118814285D02*
X50931009Y-118861904D01*
X50931009Y-118861904D02*
X50978628Y-118957142D01*
X50978628Y-118957142D02*
X50978628Y-119338094D01*
X50454819Y-117909523D02*
X50454819Y-118099999D01*
X50454819Y-118099999D02*
X50502438Y-118195237D01*
X50502438Y-118195237D02*
X50550057Y-118242856D01*
X50550057Y-118242856D02*
X50692914Y-118338094D01*
X50692914Y-118338094D02*
X50883390Y-118385713D01*
X50883390Y-118385713D02*
X51264342Y-118385713D01*
X51264342Y-118385713D02*
X51359580Y-118338094D01*
X51359580Y-118338094D02*
X51407200Y-118290475D01*
X51407200Y-118290475D02*
X51454819Y-118195237D01*
X51454819Y-118195237D02*
X51454819Y-118004761D01*
X51454819Y-118004761D02*
X51407200Y-117909523D01*
X51407200Y-117909523D02*
X51359580Y-117861904D01*
X51359580Y-117861904D02*
X51264342Y-117814285D01*
X51264342Y-117814285D02*
X51026247Y-117814285D01*
X51026247Y-117814285D02*
X50931009Y-117861904D01*
X50931009Y-117861904D02*
X50883390Y-117909523D01*
X50883390Y-117909523D02*
X50835771Y-118004761D01*
X50835771Y-118004761D02*
X50835771Y-118195237D01*
X50835771Y-118195237D02*
X50883390Y-118290475D01*
X50883390Y-118290475D02*
X50931009Y-118338094D01*
X50931009Y-118338094D02*
X51026247Y-118385713D01*
X66336666Y-140784819D02*
X66336666Y-141499104D01*
X66336666Y-141499104D02*
X66289047Y-141641961D01*
X66289047Y-141641961D02*
X66193809Y-141737200D01*
X66193809Y-141737200D02*
X66050952Y-141784819D01*
X66050952Y-141784819D02*
X65955714Y-141784819D01*
X66860476Y-141784819D02*
X67050952Y-141784819D01*
X67050952Y-141784819D02*
X67146190Y-141737200D01*
X67146190Y-141737200D02*
X67193809Y-141689580D01*
X67193809Y-141689580D02*
X67289047Y-141546723D01*
X67289047Y-141546723D02*
X67336666Y-141356247D01*
X67336666Y-141356247D02*
X67336666Y-140975295D01*
X67336666Y-140975295D02*
X67289047Y-140880057D01*
X67289047Y-140880057D02*
X67241428Y-140832438D01*
X67241428Y-140832438D02*
X67146190Y-140784819D01*
X67146190Y-140784819D02*
X66955714Y-140784819D01*
X66955714Y-140784819D02*
X66860476Y-140832438D01*
X66860476Y-140832438D02*
X66812857Y-140880057D01*
X66812857Y-140880057D02*
X66765238Y-140975295D01*
X66765238Y-140975295D02*
X66765238Y-141213390D01*
X66765238Y-141213390D02*
X66812857Y-141308628D01*
X66812857Y-141308628D02*
X66860476Y-141356247D01*
X66860476Y-141356247D02*
X66955714Y-141403866D01*
X66955714Y-141403866D02*
X67146190Y-141403866D01*
X67146190Y-141403866D02*
X67241428Y-141356247D01*
X67241428Y-141356247D02*
X67289047Y-141308628D01*
X67289047Y-141308628D02*
X67336666Y-141213390D01*
X66336666Y-125784819D02*
X66336666Y-126499104D01*
X66336666Y-126499104D02*
X66289047Y-126641961D01*
X66289047Y-126641961D02*
X66193809Y-126737200D01*
X66193809Y-126737200D02*
X66050952Y-126784819D01*
X66050952Y-126784819D02*
X65955714Y-126784819D01*
X66717619Y-125784819D02*
X67384285Y-125784819D01*
X67384285Y-125784819D02*
X66955714Y-126784819D01*
X49836666Y-140784819D02*
X49836666Y-141499104D01*
X49836666Y-141499104D02*
X49789047Y-141641961D01*
X49789047Y-141641961D02*
X49693809Y-141737200D01*
X49693809Y-141737200D02*
X49550952Y-141784819D01*
X49550952Y-141784819D02*
X49455714Y-141784819D01*
X50455714Y-141213390D02*
X50360476Y-141165771D01*
X50360476Y-141165771D02*
X50312857Y-141118152D01*
X50312857Y-141118152D02*
X50265238Y-141022914D01*
X50265238Y-141022914D02*
X50265238Y-140975295D01*
X50265238Y-140975295D02*
X50312857Y-140880057D01*
X50312857Y-140880057D02*
X50360476Y-140832438D01*
X50360476Y-140832438D02*
X50455714Y-140784819D01*
X50455714Y-140784819D02*
X50646190Y-140784819D01*
X50646190Y-140784819D02*
X50741428Y-140832438D01*
X50741428Y-140832438D02*
X50789047Y-140880057D01*
X50789047Y-140880057D02*
X50836666Y-140975295D01*
X50836666Y-140975295D02*
X50836666Y-141022914D01*
X50836666Y-141022914D02*
X50789047Y-141118152D01*
X50789047Y-141118152D02*
X50741428Y-141165771D01*
X50741428Y-141165771D02*
X50646190Y-141213390D01*
X50646190Y-141213390D02*
X50455714Y-141213390D01*
X50455714Y-141213390D02*
X50360476Y-141261009D01*
X50360476Y-141261009D02*
X50312857Y-141308628D01*
X50312857Y-141308628D02*
X50265238Y-141403866D01*
X50265238Y-141403866D02*
X50265238Y-141594342D01*
X50265238Y-141594342D02*
X50312857Y-141689580D01*
X50312857Y-141689580D02*
X50360476Y-141737200D01*
X50360476Y-141737200D02*
X50455714Y-141784819D01*
X50455714Y-141784819D02*
X50646190Y-141784819D01*
X50646190Y-141784819D02*
X50741428Y-141737200D01*
X50741428Y-141737200D02*
X50789047Y-141689580D01*
X50789047Y-141689580D02*
X50836666Y-141594342D01*
X50836666Y-141594342D02*
X50836666Y-141403866D01*
X50836666Y-141403866D02*
X50789047Y-141308628D01*
X50789047Y-141308628D02*
X50741428Y-141261009D01*
X50741428Y-141261009D02*
X50646190Y-141213390D01*
X73583333Y-92609580D02*
X73535714Y-92657200D01*
X73535714Y-92657200D02*
X73392857Y-92704819D01*
X73392857Y-92704819D02*
X73297619Y-92704819D01*
X73297619Y-92704819D02*
X73154762Y-92657200D01*
X73154762Y-92657200D02*
X73059524Y-92561961D01*
X73059524Y-92561961D02*
X73011905Y-92466723D01*
X73011905Y-92466723D02*
X72964286Y-92276247D01*
X72964286Y-92276247D02*
X72964286Y-92133390D01*
X72964286Y-92133390D02*
X73011905Y-91942914D01*
X73011905Y-91942914D02*
X73059524Y-91847676D01*
X73059524Y-91847676D02*
X73154762Y-91752438D01*
X73154762Y-91752438D02*
X73297619Y-91704819D01*
X73297619Y-91704819D02*
X73392857Y-91704819D01*
X73392857Y-91704819D02*
X73535714Y-91752438D01*
X73535714Y-91752438D02*
X73583333Y-91800057D01*
X74535714Y-92704819D02*
X73964286Y-92704819D01*
X74250000Y-92704819D02*
X74250000Y-91704819D01*
X74250000Y-91704819D02*
X74154762Y-91847676D01*
X74154762Y-91847676D02*
X74059524Y-91942914D01*
X74059524Y-91942914D02*
X73964286Y-91990533D01*
X64031905Y-136454819D02*
X64031905Y-135454819D01*
X64031905Y-135454819D02*
X64270000Y-135454819D01*
X64270000Y-135454819D02*
X64412857Y-135502438D01*
X64412857Y-135502438D02*
X64508095Y-135597676D01*
X64508095Y-135597676D02*
X64555714Y-135692914D01*
X64555714Y-135692914D02*
X64603333Y-135883390D01*
X64603333Y-135883390D02*
X64603333Y-136026247D01*
X64603333Y-136026247D02*
X64555714Y-136216723D01*
X64555714Y-136216723D02*
X64508095Y-136311961D01*
X64508095Y-136311961D02*
X64412857Y-136407200D01*
X64412857Y-136407200D02*
X64270000Y-136454819D01*
X64270000Y-136454819D02*
X64031905Y-136454819D01*
X64984286Y-135550057D02*
X65031905Y-135502438D01*
X65031905Y-135502438D02*
X65127143Y-135454819D01*
X65127143Y-135454819D02*
X65365238Y-135454819D01*
X65365238Y-135454819D02*
X65460476Y-135502438D01*
X65460476Y-135502438D02*
X65508095Y-135550057D01*
X65508095Y-135550057D02*
X65555714Y-135645295D01*
X65555714Y-135645295D02*
X65555714Y-135740533D01*
X65555714Y-135740533D02*
X65508095Y-135883390D01*
X65508095Y-135883390D02*
X64936667Y-136454819D01*
X64936667Y-136454819D02*
X65555714Y-136454819D01*
X66386666Y-46634819D02*
X66386666Y-47349104D01*
X66386666Y-47349104D02*
X66339047Y-47491961D01*
X66339047Y-47491961D02*
X66243809Y-47587200D01*
X66243809Y-47587200D02*
X66100952Y-47634819D01*
X66100952Y-47634819D02*
X66005714Y-47634819D01*
X66767619Y-46634819D02*
X67386666Y-46634819D01*
X67386666Y-46634819D02*
X67053333Y-47015771D01*
X67053333Y-47015771D02*
X67196190Y-47015771D01*
X67196190Y-47015771D02*
X67291428Y-47063390D01*
X67291428Y-47063390D02*
X67339047Y-47111009D01*
X67339047Y-47111009D02*
X67386666Y-47206247D01*
X67386666Y-47206247D02*
X67386666Y-47444342D01*
X67386666Y-47444342D02*
X67339047Y-47539580D01*
X67339047Y-47539580D02*
X67291428Y-47587200D01*
X67291428Y-47587200D02*
X67196190Y-47634819D01*
X67196190Y-47634819D02*
X66910476Y-47634819D01*
X66910476Y-47634819D02*
X66815238Y-47587200D01*
X66815238Y-47587200D02*
X66767619Y-47539580D01*
X69659580Y-90666666D02*
X69707200Y-90714285D01*
X69707200Y-90714285D02*
X69754819Y-90857142D01*
X69754819Y-90857142D02*
X69754819Y-90952380D01*
X69754819Y-90952380D02*
X69707200Y-91095237D01*
X69707200Y-91095237D02*
X69611961Y-91190475D01*
X69611961Y-91190475D02*
X69516723Y-91238094D01*
X69516723Y-91238094D02*
X69326247Y-91285713D01*
X69326247Y-91285713D02*
X69183390Y-91285713D01*
X69183390Y-91285713D02*
X68992914Y-91238094D01*
X68992914Y-91238094D02*
X68897676Y-91190475D01*
X68897676Y-91190475D02*
X68802438Y-91095237D01*
X68802438Y-91095237D02*
X68754819Y-90952380D01*
X68754819Y-90952380D02*
X68754819Y-90857142D01*
X68754819Y-90857142D02*
X68802438Y-90714285D01*
X68802438Y-90714285D02*
X68850057Y-90666666D01*
X69088152Y-89809523D02*
X69754819Y-89809523D01*
X68707200Y-90047618D02*
X69421485Y-90285713D01*
X69421485Y-90285713D02*
X69421485Y-89666666D01*
X68954819Y-114682857D02*
X68478628Y-115016190D01*
X68954819Y-115254285D02*
X67954819Y-115254285D01*
X67954819Y-115254285D02*
X67954819Y-114873333D01*
X67954819Y-114873333D02*
X68002438Y-114778095D01*
X68002438Y-114778095D02*
X68050057Y-114730476D01*
X68050057Y-114730476D02*
X68145295Y-114682857D01*
X68145295Y-114682857D02*
X68288152Y-114682857D01*
X68288152Y-114682857D02*
X68383390Y-114730476D01*
X68383390Y-114730476D02*
X68431009Y-114778095D01*
X68431009Y-114778095D02*
X68478628Y-114873333D01*
X68478628Y-114873333D02*
X68478628Y-115254285D01*
X68954819Y-113730476D02*
X68954819Y-114301904D01*
X68954819Y-114016190D02*
X67954819Y-114016190D01*
X67954819Y-114016190D02*
X68097676Y-114111428D01*
X68097676Y-114111428D02*
X68192914Y-114206666D01*
X68192914Y-114206666D02*
X68240533Y-114301904D01*
X67954819Y-113111428D02*
X67954819Y-113016190D01*
X67954819Y-113016190D02*
X68002438Y-112920952D01*
X68002438Y-112920952D02*
X68050057Y-112873333D01*
X68050057Y-112873333D02*
X68145295Y-112825714D01*
X68145295Y-112825714D02*
X68335771Y-112778095D01*
X68335771Y-112778095D02*
X68573866Y-112778095D01*
X68573866Y-112778095D02*
X68764342Y-112825714D01*
X68764342Y-112825714D02*
X68859580Y-112873333D01*
X68859580Y-112873333D02*
X68907200Y-112920952D01*
X68907200Y-112920952D02*
X68954819Y-113016190D01*
X68954819Y-113016190D02*
X68954819Y-113111428D01*
X68954819Y-113111428D02*
X68907200Y-113206666D01*
X68907200Y-113206666D02*
X68859580Y-113254285D01*
X68859580Y-113254285D02*
X68764342Y-113301904D01*
X68764342Y-113301904D02*
X68573866Y-113349523D01*
X68573866Y-113349523D02*
X68335771Y-113349523D01*
X68335771Y-113349523D02*
X68145295Y-113301904D01*
X68145295Y-113301904D02*
X68050057Y-113254285D01*
X68050057Y-113254285D02*
X68002438Y-113206666D01*
X68002438Y-113206666D02*
X67954819Y-113111428D01*
X66386666Y-61634819D02*
X66386666Y-62349104D01*
X66386666Y-62349104D02*
X66339047Y-62491961D01*
X66339047Y-62491961D02*
X66243809Y-62587200D01*
X66243809Y-62587200D02*
X66100952Y-62634819D01*
X66100952Y-62634819D02*
X66005714Y-62634819D01*
X67339047Y-61634819D02*
X66862857Y-61634819D01*
X66862857Y-61634819D02*
X66815238Y-62111009D01*
X66815238Y-62111009D02*
X66862857Y-62063390D01*
X66862857Y-62063390D02*
X66958095Y-62015771D01*
X66958095Y-62015771D02*
X67196190Y-62015771D01*
X67196190Y-62015771D02*
X67291428Y-62063390D01*
X67291428Y-62063390D02*
X67339047Y-62111009D01*
X67339047Y-62111009D02*
X67386666Y-62206247D01*
X67386666Y-62206247D02*
X67386666Y-62444342D01*
X67386666Y-62444342D02*
X67339047Y-62539580D01*
X67339047Y-62539580D02*
X67291428Y-62587200D01*
X67291428Y-62587200D02*
X67196190Y-62634819D01*
X67196190Y-62634819D02*
X66958095Y-62634819D01*
X66958095Y-62634819D02*
X66862857Y-62587200D01*
X66862857Y-62587200D02*
X66815238Y-62539580D01*
X60584819Y-50916666D02*
X60108628Y-51249999D01*
X60584819Y-51488094D02*
X59584819Y-51488094D01*
X59584819Y-51488094D02*
X59584819Y-51107142D01*
X59584819Y-51107142D02*
X59632438Y-51011904D01*
X59632438Y-51011904D02*
X59680057Y-50964285D01*
X59680057Y-50964285D02*
X59775295Y-50916666D01*
X59775295Y-50916666D02*
X59918152Y-50916666D01*
X59918152Y-50916666D02*
X60013390Y-50964285D01*
X60013390Y-50964285D02*
X60061009Y-51011904D01*
X60061009Y-51011904D02*
X60108628Y-51107142D01*
X60108628Y-51107142D02*
X60108628Y-51488094D01*
X59584819Y-50583332D02*
X59584819Y-49964285D01*
X59584819Y-49964285D02*
X59965771Y-50297618D01*
X59965771Y-50297618D02*
X59965771Y-50154761D01*
X59965771Y-50154761D02*
X60013390Y-50059523D01*
X60013390Y-50059523D02*
X60061009Y-50011904D01*
X60061009Y-50011904D02*
X60156247Y-49964285D01*
X60156247Y-49964285D02*
X60394342Y-49964285D01*
X60394342Y-49964285D02*
X60489580Y-50011904D01*
X60489580Y-50011904D02*
X60537200Y-50059523D01*
X60537200Y-50059523D02*
X60584819Y-50154761D01*
X60584819Y-50154761D02*
X60584819Y-50440475D01*
X60584819Y-50440475D02*
X60537200Y-50535713D01*
X60537200Y-50535713D02*
X60489580Y-50583332D01*
X65224819Y-147246666D02*
X64748628Y-147579999D01*
X65224819Y-147818094D02*
X64224819Y-147818094D01*
X64224819Y-147818094D02*
X64224819Y-147437142D01*
X64224819Y-147437142D02*
X64272438Y-147341904D01*
X64272438Y-147341904D02*
X64320057Y-147294285D01*
X64320057Y-147294285D02*
X64415295Y-147246666D01*
X64415295Y-147246666D02*
X64558152Y-147246666D01*
X64558152Y-147246666D02*
X64653390Y-147294285D01*
X64653390Y-147294285D02*
X64701009Y-147341904D01*
X64701009Y-147341904D02*
X64748628Y-147437142D01*
X64748628Y-147437142D02*
X64748628Y-147818094D01*
X65224819Y-146770475D02*
X65224819Y-146579999D01*
X65224819Y-146579999D02*
X65177200Y-146484761D01*
X65177200Y-146484761D02*
X65129580Y-146437142D01*
X65129580Y-146437142D02*
X64986723Y-146341904D01*
X64986723Y-146341904D02*
X64796247Y-146294285D01*
X64796247Y-146294285D02*
X64415295Y-146294285D01*
X64415295Y-146294285D02*
X64320057Y-146341904D01*
X64320057Y-146341904D02*
X64272438Y-146389523D01*
X64272438Y-146389523D02*
X64224819Y-146484761D01*
X64224819Y-146484761D02*
X64224819Y-146675237D01*
X64224819Y-146675237D02*
X64272438Y-146770475D01*
X64272438Y-146770475D02*
X64320057Y-146818094D01*
X64320057Y-146818094D02*
X64415295Y-146865713D01*
X64415295Y-146865713D02*
X64653390Y-146865713D01*
X64653390Y-146865713D02*
X64748628Y-146818094D01*
X64748628Y-146818094D02*
X64796247Y-146770475D01*
X64796247Y-146770475D02*
X64843866Y-146675237D01*
X64843866Y-146675237D02*
X64843866Y-146484761D01*
X64843866Y-146484761D02*
X64796247Y-146389523D01*
X64796247Y-146389523D02*
X64748628Y-146341904D01*
X64748628Y-146341904D02*
X64653390Y-146294285D01*
X52559580Y-111966666D02*
X52607200Y-112014285D01*
X52607200Y-112014285D02*
X52654819Y-112157142D01*
X52654819Y-112157142D02*
X52654819Y-112252380D01*
X52654819Y-112252380D02*
X52607200Y-112395237D01*
X52607200Y-112395237D02*
X52511961Y-112490475D01*
X52511961Y-112490475D02*
X52416723Y-112538094D01*
X52416723Y-112538094D02*
X52226247Y-112585713D01*
X52226247Y-112585713D02*
X52083390Y-112585713D01*
X52083390Y-112585713D02*
X51892914Y-112538094D01*
X51892914Y-112538094D02*
X51797676Y-112490475D01*
X51797676Y-112490475D02*
X51702438Y-112395237D01*
X51702438Y-112395237D02*
X51654819Y-112252380D01*
X51654819Y-112252380D02*
X51654819Y-112157142D01*
X51654819Y-112157142D02*
X51702438Y-112014285D01*
X51702438Y-112014285D02*
X51750057Y-111966666D01*
X51654819Y-111109523D02*
X51654819Y-111299999D01*
X51654819Y-111299999D02*
X51702438Y-111395237D01*
X51702438Y-111395237D02*
X51750057Y-111442856D01*
X51750057Y-111442856D02*
X51892914Y-111538094D01*
X51892914Y-111538094D02*
X52083390Y-111585713D01*
X52083390Y-111585713D02*
X52464342Y-111585713D01*
X52464342Y-111585713D02*
X52559580Y-111538094D01*
X52559580Y-111538094D02*
X52607200Y-111490475D01*
X52607200Y-111490475D02*
X52654819Y-111395237D01*
X52654819Y-111395237D02*
X52654819Y-111204761D01*
X52654819Y-111204761D02*
X52607200Y-111109523D01*
X52607200Y-111109523D02*
X52559580Y-111061904D01*
X52559580Y-111061904D02*
X52464342Y-111014285D01*
X52464342Y-111014285D02*
X52226247Y-111014285D01*
X52226247Y-111014285D02*
X52131009Y-111061904D01*
X52131009Y-111061904D02*
X52083390Y-111109523D01*
X52083390Y-111109523D02*
X52035771Y-111204761D01*
X52035771Y-111204761D02*
X52035771Y-111395237D01*
X52035771Y-111395237D02*
X52083390Y-111490475D01*
X52083390Y-111490475D02*
X52131009Y-111538094D01*
X52131009Y-111538094D02*
X52226247Y-111585713D01*
X77074819Y-116786666D02*
X76598628Y-117119999D01*
X77074819Y-117358094D02*
X76074819Y-117358094D01*
X76074819Y-117358094D02*
X76074819Y-116977142D01*
X76074819Y-116977142D02*
X76122438Y-116881904D01*
X76122438Y-116881904D02*
X76170057Y-116834285D01*
X76170057Y-116834285D02*
X76265295Y-116786666D01*
X76265295Y-116786666D02*
X76408152Y-116786666D01*
X76408152Y-116786666D02*
X76503390Y-116834285D01*
X76503390Y-116834285D02*
X76551009Y-116881904D01*
X76551009Y-116881904D02*
X76598628Y-116977142D01*
X76598628Y-116977142D02*
X76598628Y-117358094D01*
X76503390Y-116215237D02*
X76455771Y-116310475D01*
X76455771Y-116310475D02*
X76408152Y-116358094D01*
X76408152Y-116358094D02*
X76312914Y-116405713D01*
X76312914Y-116405713D02*
X76265295Y-116405713D01*
X76265295Y-116405713D02*
X76170057Y-116358094D01*
X76170057Y-116358094D02*
X76122438Y-116310475D01*
X76122438Y-116310475D02*
X76074819Y-116215237D01*
X76074819Y-116215237D02*
X76074819Y-116024761D01*
X76074819Y-116024761D02*
X76122438Y-115929523D01*
X76122438Y-115929523D02*
X76170057Y-115881904D01*
X76170057Y-115881904D02*
X76265295Y-115834285D01*
X76265295Y-115834285D02*
X76312914Y-115834285D01*
X76312914Y-115834285D02*
X76408152Y-115881904D01*
X76408152Y-115881904D02*
X76455771Y-115929523D01*
X76455771Y-115929523D02*
X76503390Y-116024761D01*
X76503390Y-116024761D02*
X76503390Y-116215237D01*
X76503390Y-116215237D02*
X76551009Y-116310475D01*
X76551009Y-116310475D02*
X76598628Y-116358094D01*
X76598628Y-116358094D02*
X76693866Y-116405713D01*
X76693866Y-116405713D02*
X76884342Y-116405713D01*
X76884342Y-116405713D02*
X76979580Y-116358094D01*
X76979580Y-116358094D02*
X77027200Y-116310475D01*
X77027200Y-116310475D02*
X77074819Y-116215237D01*
X77074819Y-116215237D02*
X77074819Y-116024761D01*
X77074819Y-116024761D02*
X77027200Y-115929523D01*
X77027200Y-115929523D02*
X76979580Y-115881904D01*
X76979580Y-115881904D02*
X76884342Y-115834285D01*
X76884342Y-115834285D02*
X76693866Y-115834285D01*
X76693866Y-115834285D02*
X76598628Y-115881904D01*
X76598628Y-115881904D02*
X76551009Y-115929523D01*
X76551009Y-115929523D02*
X76503390Y-116024761D01*
X70359580Y-78566666D02*
X70407200Y-78614285D01*
X70407200Y-78614285D02*
X70454819Y-78757142D01*
X70454819Y-78757142D02*
X70454819Y-78852380D01*
X70454819Y-78852380D02*
X70407200Y-78995237D01*
X70407200Y-78995237D02*
X70311961Y-79090475D01*
X70311961Y-79090475D02*
X70216723Y-79138094D01*
X70216723Y-79138094D02*
X70026247Y-79185713D01*
X70026247Y-79185713D02*
X69883390Y-79185713D01*
X69883390Y-79185713D02*
X69692914Y-79138094D01*
X69692914Y-79138094D02*
X69597676Y-79090475D01*
X69597676Y-79090475D02*
X69502438Y-78995237D01*
X69502438Y-78995237D02*
X69454819Y-78852380D01*
X69454819Y-78852380D02*
X69454819Y-78757142D01*
X69454819Y-78757142D02*
X69502438Y-78614285D01*
X69502438Y-78614285D02*
X69550057Y-78566666D01*
X69454819Y-78233332D02*
X69454819Y-77614285D01*
X69454819Y-77614285D02*
X69835771Y-77947618D01*
X69835771Y-77947618D02*
X69835771Y-77804761D01*
X69835771Y-77804761D02*
X69883390Y-77709523D01*
X69883390Y-77709523D02*
X69931009Y-77661904D01*
X69931009Y-77661904D02*
X70026247Y-77614285D01*
X70026247Y-77614285D02*
X70264342Y-77614285D01*
X70264342Y-77614285D02*
X70359580Y-77661904D01*
X70359580Y-77661904D02*
X70407200Y-77709523D01*
X70407200Y-77709523D02*
X70454819Y-77804761D01*
X70454819Y-77804761D02*
X70454819Y-78090475D01*
X70454819Y-78090475D02*
X70407200Y-78185713D01*
X70407200Y-78185713D02*
X70359580Y-78233332D01*
X49584819Y-78836666D02*
X49108628Y-79169999D01*
X49584819Y-79408094D02*
X48584819Y-79408094D01*
X48584819Y-79408094D02*
X48584819Y-79027142D01*
X48584819Y-79027142D02*
X48632438Y-78931904D01*
X48632438Y-78931904D02*
X48680057Y-78884285D01*
X48680057Y-78884285D02*
X48775295Y-78836666D01*
X48775295Y-78836666D02*
X48918152Y-78836666D01*
X48918152Y-78836666D02*
X49013390Y-78884285D01*
X49013390Y-78884285D02*
X49061009Y-78931904D01*
X49061009Y-78931904D02*
X49108628Y-79027142D01*
X49108628Y-79027142D02*
X49108628Y-79408094D01*
X49584819Y-77884285D02*
X49584819Y-78455713D01*
X49584819Y-78169999D02*
X48584819Y-78169999D01*
X48584819Y-78169999D02*
X48727676Y-78265237D01*
X48727676Y-78265237D02*
X48822914Y-78360475D01*
X48822914Y-78360475D02*
X48870533Y-78455713D01*
X65224819Y-130066666D02*
X64748628Y-130399999D01*
X65224819Y-130638094D02*
X64224819Y-130638094D01*
X64224819Y-130638094D02*
X64224819Y-130257142D01*
X64224819Y-130257142D02*
X64272438Y-130161904D01*
X64272438Y-130161904D02*
X64320057Y-130114285D01*
X64320057Y-130114285D02*
X64415295Y-130066666D01*
X64415295Y-130066666D02*
X64558152Y-130066666D01*
X64558152Y-130066666D02*
X64653390Y-130114285D01*
X64653390Y-130114285D02*
X64701009Y-130161904D01*
X64701009Y-130161904D02*
X64748628Y-130257142D01*
X64748628Y-130257142D02*
X64748628Y-130638094D01*
X64224819Y-129733332D02*
X64224819Y-129066666D01*
X64224819Y-129066666D02*
X65224819Y-129495237D01*
X49886666Y-46634819D02*
X49886666Y-47349104D01*
X49886666Y-47349104D02*
X49839047Y-47491961D01*
X49839047Y-47491961D02*
X49743809Y-47587200D01*
X49743809Y-47587200D02*
X49600952Y-47634819D01*
X49600952Y-47634819D02*
X49505714Y-47634819D01*
X50315238Y-46730057D02*
X50362857Y-46682438D01*
X50362857Y-46682438D02*
X50458095Y-46634819D01*
X50458095Y-46634819D02*
X50696190Y-46634819D01*
X50696190Y-46634819D02*
X50791428Y-46682438D01*
X50791428Y-46682438D02*
X50839047Y-46730057D01*
X50839047Y-46730057D02*
X50886666Y-46825295D01*
X50886666Y-46825295D02*
X50886666Y-46920533D01*
X50886666Y-46920533D02*
X50839047Y-47063390D01*
X50839047Y-47063390D02*
X50267619Y-47634819D01*
X50267619Y-47634819D02*
X50886666Y-47634819D01*
X55618095Y-106994819D02*
X55618095Y-107804342D01*
X55618095Y-107804342D02*
X55665714Y-107899580D01*
X55665714Y-107899580D02*
X55713333Y-107947200D01*
X55713333Y-107947200D02*
X55808571Y-107994819D01*
X55808571Y-107994819D02*
X55999047Y-107994819D01*
X55999047Y-107994819D02*
X56094285Y-107947200D01*
X56094285Y-107947200D02*
X56141904Y-107899580D01*
X56141904Y-107899580D02*
X56189523Y-107804342D01*
X56189523Y-107804342D02*
X56189523Y-106994819D01*
X56618095Y-107090057D02*
X56665714Y-107042438D01*
X56665714Y-107042438D02*
X56760952Y-106994819D01*
X56760952Y-106994819D02*
X56999047Y-106994819D01*
X56999047Y-106994819D02*
X57094285Y-107042438D01*
X57094285Y-107042438D02*
X57141904Y-107090057D01*
X57141904Y-107090057D02*
X57189523Y-107185295D01*
X57189523Y-107185295D02*
X57189523Y-107280533D01*
X57189523Y-107280533D02*
X57141904Y-107423390D01*
X57141904Y-107423390D02*
X56570476Y-107994819D01*
X56570476Y-107994819D02*
X57189523Y-107994819D01*
X49886666Y-61634819D02*
X49886666Y-62349104D01*
X49886666Y-62349104D02*
X49839047Y-62491961D01*
X49839047Y-62491961D02*
X49743809Y-62587200D01*
X49743809Y-62587200D02*
X49600952Y-62634819D01*
X49600952Y-62634819D02*
X49505714Y-62634819D01*
X50791428Y-61968152D02*
X50791428Y-62634819D01*
X50553333Y-61587200D02*
X50315238Y-62301485D01*
X50315238Y-62301485D02*
X50934285Y-62301485D01*
X60584819Y-68086666D02*
X60108628Y-68419999D01*
X60584819Y-68658094D02*
X59584819Y-68658094D01*
X59584819Y-68658094D02*
X59584819Y-68277142D01*
X59584819Y-68277142D02*
X59632438Y-68181904D01*
X59632438Y-68181904D02*
X59680057Y-68134285D01*
X59680057Y-68134285D02*
X59775295Y-68086666D01*
X59775295Y-68086666D02*
X59918152Y-68086666D01*
X59918152Y-68086666D02*
X60013390Y-68134285D01*
X60013390Y-68134285D02*
X60061009Y-68181904D01*
X60061009Y-68181904D02*
X60108628Y-68277142D01*
X60108628Y-68277142D02*
X60108628Y-68658094D01*
X59680057Y-67705713D02*
X59632438Y-67658094D01*
X59632438Y-67658094D02*
X59584819Y-67562856D01*
X59584819Y-67562856D02*
X59584819Y-67324761D01*
X59584819Y-67324761D02*
X59632438Y-67229523D01*
X59632438Y-67229523D02*
X59680057Y-67181904D01*
X59680057Y-67181904D02*
X59775295Y-67134285D01*
X59775295Y-67134285D02*
X59870533Y-67134285D01*
X59870533Y-67134285D02*
X60013390Y-67181904D01*
X60013390Y-67181904D02*
X60584819Y-67753332D01*
X60584819Y-67753332D02*
X60584819Y-67134285D01*
X55754819Y-81066666D02*
X55278628Y-81399999D01*
X55754819Y-81638094D02*
X54754819Y-81638094D01*
X54754819Y-81638094D02*
X54754819Y-81257142D01*
X54754819Y-81257142D02*
X54802438Y-81161904D01*
X54802438Y-81161904D02*
X54850057Y-81114285D01*
X54850057Y-81114285D02*
X54945295Y-81066666D01*
X54945295Y-81066666D02*
X55088152Y-81066666D01*
X55088152Y-81066666D02*
X55183390Y-81114285D01*
X55183390Y-81114285D02*
X55231009Y-81161904D01*
X55231009Y-81161904D02*
X55278628Y-81257142D01*
X55278628Y-81257142D02*
X55278628Y-81638094D01*
X55088152Y-80209523D02*
X55754819Y-80209523D01*
X54707200Y-80447618D02*
X55421485Y-80685713D01*
X55421485Y-80685713D02*
X55421485Y-80066666D01*
X72854819Y-82466666D02*
X72378628Y-82799999D01*
X72854819Y-83038094D02*
X71854819Y-83038094D01*
X71854819Y-83038094D02*
X71854819Y-82657142D01*
X71854819Y-82657142D02*
X71902438Y-82561904D01*
X71902438Y-82561904D02*
X71950057Y-82514285D01*
X71950057Y-82514285D02*
X72045295Y-82466666D01*
X72045295Y-82466666D02*
X72188152Y-82466666D01*
X72188152Y-82466666D02*
X72283390Y-82514285D01*
X72283390Y-82514285D02*
X72331009Y-82561904D01*
X72331009Y-82561904D02*
X72378628Y-82657142D01*
X72378628Y-82657142D02*
X72378628Y-83038094D01*
X71854819Y-81561904D02*
X71854819Y-82038094D01*
X71854819Y-82038094D02*
X72331009Y-82085713D01*
X72331009Y-82085713D02*
X72283390Y-82038094D01*
X72283390Y-82038094D02*
X72235771Y-81942856D01*
X72235771Y-81942856D02*
X72235771Y-81704761D01*
X72235771Y-81704761D02*
X72283390Y-81609523D01*
X72283390Y-81609523D02*
X72331009Y-81561904D01*
X72331009Y-81561904D02*
X72426247Y-81514285D01*
X72426247Y-81514285D02*
X72664342Y-81514285D01*
X72664342Y-81514285D02*
X72759580Y-81561904D01*
X72759580Y-81561904D02*
X72807200Y-81609523D01*
X72807200Y-81609523D02*
X72854819Y-81704761D01*
X72854819Y-81704761D02*
X72854819Y-81942856D01*
X72854819Y-81942856D02*
X72807200Y-82038094D01*
X72807200Y-82038094D02*
X72759580Y-82085713D01*
X60171905Y-57354819D02*
X60171905Y-56354819D01*
X60171905Y-56354819D02*
X60410000Y-56354819D01*
X60410000Y-56354819D02*
X60552857Y-56402438D01*
X60552857Y-56402438D02*
X60648095Y-56497676D01*
X60648095Y-56497676D02*
X60695714Y-56592914D01*
X60695714Y-56592914D02*
X60743333Y-56783390D01*
X60743333Y-56783390D02*
X60743333Y-56926247D01*
X60743333Y-56926247D02*
X60695714Y-57116723D01*
X60695714Y-57116723D02*
X60648095Y-57211961D01*
X60648095Y-57211961D02*
X60552857Y-57307200D01*
X60552857Y-57307200D02*
X60410000Y-57354819D01*
X60410000Y-57354819D02*
X60171905Y-57354819D01*
X61695714Y-57354819D02*
X61124286Y-57354819D01*
X61410000Y-57354819D02*
X61410000Y-56354819D01*
X61410000Y-56354819D02*
X61314762Y-56497676D01*
X61314762Y-56497676D02*
X61219524Y-56592914D01*
X61219524Y-56592914D02*
X61124286Y-56640533D01*
X73583333Y-98209580D02*
X73535714Y-98257200D01*
X73535714Y-98257200D02*
X73392857Y-98304819D01*
X73392857Y-98304819D02*
X73297619Y-98304819D01*
X73297619Y-98304819D02*
X73154762Y-98257200D01*
X73154762Y-98257200D02*
X73059524Y-98161961D01*
X73059524Y-98161961D02*
X73011905Y-98066723D01*
X73011905Y-98066723D02*
X72964286Y-97876247D01*
X72964286Y-97876247D02*
X72964286Y-97733390D01*
X72964286Y-97733390D02*
X73011905Y-97542914D01*
X73011905Y-97542914D02*
X73059524Y-97447676D01*
X73059524Y-97447676D02*
X73154762Y-97352438D01*
X73154762Y-97352438D02*
X73297619Y-97304819D01*
X73297619Y-97304819D02*
X73392857Y-97304819D01*
X73392857Y-97304819D02*
X73535714Y-97352438D01*
X73535714Y-97352438D02*
X73583333Y-97400057D01*
X73964286Y-97400057D02*
X74011905Y-97352438D01*
X74011905Y-97352438D02*
X74107143Y-97304819D01*
X74107143Y-97304819D02*
X74345238Y-97304819D01*
X74345238Y-97304819D02*
X74440476Y-97352438D01*
X74440476Y-97352438D02*
X74488095Y-97400057D01*
X74488095Y-97400057D02*
X74535714Y-97495295D01*
X74535714Y-97495295D02*
X74535714Y-97590533D01*
X74535714Y-97590533D02*
X74488095Y-97733390D01*
X74488095Y-97733390D02*
X73916667Y-98304819D01*
X73916667Y-98304819D02*
X74535714Y-98304819D01*
D13*
%TO.C,G\u002A\u002A\u002A*%
G36*
X100186316Y-120694808D02*
G01*
X100176512Y-121295088D01*
X94807855Y-121304135D01*
X94063463Y-121305294D01*
X93387519Y-121306128D01*
X92777020Y-121306617D01*
X92228967Y-121306741D01*
X91740358Y-121306477D01*
X91308192Y-121305807D01*
X90929467Y-121304709D01*
X90601185Y-121303162D01*
X90320342Y-121301145D01*
X90083938Y-121298638D01*
X89888973Y-121295620D01*
X89732445Y-121292071D01*
X89611353Y-121287969D01*
X89522696Y-121283294D01*
X89463473Y-121278025D01*
X89430684Y-121272141D01*
X89421441Y-121266911D01*
X89415910Y-121216589D01*
X89412383Y-121108397D01*
X89411036Y-120955888D01*
X89412047Y-120772617D01*
X89413587Y-120668412D01*
X89423488Y-120116185D01*
X89602110Y-120116185D01*
X89780732Y-120116185D01*
X89790833Y-120518084D01*
X89800934Y-120919983D01*
X94800000Y-120919983D01*
X99799067Y-120919983D01*
X99809168Y-120518084D01*
X99819269Y-120116185D01*
X100007694Y-120105357D01*
X100196119Y-120094529D01*
X100186316Y-120694808D01*
G37*
G36*
X92385917Y-117549112D02*
G01*
X92615911Y-117622701D01*
X92816598Y-117747770D01*
X92980930Y-117915277D01*
X93101856Y-118116179D01*
X93172325Y-118341435D01*
X93185288Y-118582003D01*
X93136136Y-118821764D01*
X93043315Y-119006173D01*
X92901463Y-119183730D01*
X92731217Y-119331741D01*
X92604315Y-119406500D01*
X92391963Y-119471194D01*
X92154063Y-119487421D01*
X91918383Y-119454279D01*
X91842785Y-119431283D01*
X91680089Y-119344738D01*
X91520235Y-119210543D01*
X91384342Y-119050123D01*
X91293529Y-118884900D01*
X91287363Y-118867837D01*
X91230913Y-118604763D01*
X91238698Y-118351976D01*
X91305203Y-118118154D01*
X91424914Y-117911974D01*
X91592318Y-117742114D01*
X91801899Y-117617251D01*
X92048143Y-117546063D01*
X92133667Y-117536045D01*
X92385917Y-117549112D01*
G37*
G36*
X97621600Y-117559372D02*
G01*
X97855647Y-117644310D01*
X98060394Y-117785702D01*
X98225797Y-117978820D01*
X98314694Y-118146779D01*
X98365027Y-118342933D01*
X98372536Y-118566216D01*
X98338482Y-118787529D01*
X98279969Y-118948045D01*
X98138565Y-119157550D01*
X97953173Y-119320286D01*
X97736045Y-119431872D01*
X97499437Y-119487923D01*
X97255601Y-119484056D01*
X97016793Y-119415889D01*
X96997047Y-119406955D01*
X96823137Y-119297565D01*
X96660520Y-119145533D01*
X96532434Y-118974537D01*
X96488330Y-118888681D01*
X96448688Y-118739401D01*
X96432356Y-118551800D01*
X96439929Y-118355297D01*
X96472005Y-118179315D01*
X96473821Y-118173067D01*
X96554302Y-118006256D01*
X96686835Y-117844123D01*
X96853135Y-117703893D01*
X97034917Y-117602790D01*
X97105781Y-117577767D01*
X97368297Y-117535615D01*
X97621600Y-117559372D01*
G37*
G36*
X97398945Y-111675944D02*
G01*
X98997609Y-111685243D01*
X99006904Y-113301769D01*
X99016200Y-114918295D01*
X97408241Y-114918295D01*
X95800282Y-114918295D01*
X95800282Y-113292470D01*
X95800282Y-111666645D01*
X97398945Y-111675944D01*
G37*
G36*
X92451522Y-112362270D02*
G01*
X92676223Y-112447131D01*
X92864650Y-112579562D01*
X93012810Y-112750545D01*
X93116710Y-112951059D01*
X93172355Y-113172084D01*
X93175754Y-113404602D01*
X93122911Y-113639591D01*
X93009835Y-113868033D01*
X92924541Y-113982867D01*
X92777505Y-114109687D01*
X92584951Y-114207955D01*
X92369517Y-114270554D01*
X92153838Y-114290371D01*
X92003410Y-114272374D01*
X91745180Y-114178345D01*
X91535677Y-114033137D01*
X91378336Y-113840816D01*
X91276591Y-113605451D01*
X91235565Y-113362850D01*
X91246928Y-113103245D01*
X91319627Y-112876998D01*
X91456887Y-112675896D01*
X91537428Y-112594309D01*
X91714697Y-112455566D01*
X91893914Y-112373424D01*
X92100991Y-112337618D01*
X92194540Y-112334001D01*
X92451522Y-112362270D01*
G37*
G36*
X100194374Y-111115520D02*
G01*
X100194374Y-111706839D01*
X100006822Y-111696041D01*
X99819269Y-111685243D01*
X99809168Y-111283344D01*
X99799067Y-110881445D01*
X94798830Y-110881445D01*
X89798594Y-110881445D01*
X89798594Y-111292275D01*
X89798594Y-111703105D01*
X89602110Y-111703105D01*
X89405626Y-111703105D01*
X89405626Y-111113653D01*
X89405626Y-110524202D01*
X94800000Y-110524202D01*
X100194374Y-110524202D01*
X100194374Y-111115520D01*
G37*
G36*
X94221266Y-106137254D02*
G01*
X94232014Y-106166980D01*
X94240995Y-106235793D01*
X94248323Y-106348153D01*
X94254110Y-106508521D01*
X94258468Y-106721356D01*
X94261512Y-106991120D01*
X94263353Y-107322271D01*
X94264104Y-107719271D01*
X94264135Y-107831238D01*
X94263678Y-108169458D01*
X94262369Y-108486783D01*
X94260301Y-108775853D01*
X94257568Y-109029310D01*
X94254263Y-109239792D01*
X94250480Y-109399940D01*
X94246313Y-109502396D01*
X94242451Y-109538861D01*
X94192603Y-109583697D01*
X94112474Y-109592785D01*
X94034766Y-109564110D01*
X94021210Y-109552500D01*
X94011421Y-109507866D01*
X94002792Y-109400479D01*
X93995336Y-109239029D01*
X93989069Y-109032202D01*
X93984005Y-108788686D01*
X93980161Y-108517169D01*
X93977551Y-108226339D01*
X93976190Y-107924883D01*
X93976094Y-107621488D01*
X93977277Y-107324844D01*
X93979754Y-107043637D01*
X93983542Y-106786554D01*
X93988653Y-106562285D01*
X93995105Y-106379515D01*
X94002911Y-106246934D01*
X94012088Y-106173228D01*
X94015322Y-106163485D01*
X94080568Y-106104474D01*
X94165121Y-106102346D01*
X94221266Y-106137254D01*
G37*
G36*
X95187031Y-106118204D02*
G01*
X95201121Y-106132245D01*
X95212915Y-106159131D01*
X95222666Y-106204997D01*
X95230628Y-106275977D01*
X95237056Y-106378208D01*
X95242203Y-106517824D01*
X95246324Y-106700961D01*
X95249673Y-106933752D01*
X95252503Y-107222335D01*
X95255069Y-107572842D01*
X95256465Y-107795176D01*
X95258082Y-108133221D01*
X95258785Y-108451227D01*
X95258614Y-108741665D01*
X95257612Y-108997007D01*
X95255821Y-109209724D01*
X95253284Y-109372287D01*
X95250042Y-109477169D01*
X95246853Y-109514990D01*
X95201329Y-109574494D01*
X95123749Y-109599548D01*
X95048990Y-109580698D01*
X95038163Y-109571553D01*
X95033361Y-109532081D01*
X95028884Y-109428253D01*
X95024829Y-109267162D01*
X95021295Y-109055899D01*
X95018381Y-108801558D01*
X95016186Y-108511231D01*
X95014808Y-108192010D01*
X95014346Y-107861159D01*
X95014556Y-107466327D01*
X95015315Y-107136917D01*
X95016820Y-106866905D01*
X95019269Y-106650265D01*
X95022857Y-106480973D01*
X95027782Y-106353003D01*
X95034239Y-106260331D01*
X95042427Y-106196931D01*
X95052540Y-106156777D01*
X95064777Y-106133846D01*
X95070927Y-106127624D01*
X95139611Y-106099965D01*
X95187031Y-106118204D01*
G37*
G36*
X87182957Y-104263513D02*
G01*
X87193058Y-104665412D01*
X94800000Y-104665412D01*
X102406943Y-104665412D01*
X102417044Y-104263513D01*
X102427145Y-103861614D01*
X102605767Y-103861614D01*
X102784389Y-103861614D01*
X102794205Y-104442134D01*
X102804021Y-105022655D01*
X94800000Y-105022655D01*
X86795980Y-105022655D01*
X86805796Y-104442134D01*
X86815612Y-103861614D01*
X86994234Y-103861614D01*
X87172855Y-103861614D01*
X87182957Y-104263513D01*
G37*
G36*
X89811063Y-101265380D02*
G01*
X90024815Y-101346221D01*
X90214175Y-101466888D01*
X90236933Y-101486178D01*
X90412892Y-101684479D01*
X90528825Y-101909621D01*
X90584226Y-102150429D01*
X90578587Y-102395728D01*
X90511400Y-102634340D01*
X90382160Y-102855092D01*
X90303185Y-102946075D01*
X90103667Y-103101704D01*
X89871141Y-103199541D01*
X89618014Y-103236950D01*
X89356693Y-103211297D01*
X89227975Y-103174401D01*
X89057790Y-103084253D01*
X88892608Y-102944866D01*
X88752085Y-102776915D01*
X88655877Y-102601074D01*
X88640506Y-102556475D01*
X88592786Y-102335213D01*
X88594205Y-102137023D01*
X88645477Y-101932440D01*
X88656387Y-101902379D01*
X88769640Y-101693466D01*
X88935422Y-101511502D01*
X89138322Y-101367349D01*
X89362925Y-101271868D01*
X89593821Y-101235922D01*
X89602110Y-101235876D01*
X89811063Y-101265380D01*
G37*
G36*
X94927817Y-101255851D02*
G01*
X95150285Y-101308664D01*
X95355481Y-101413642D01*
X95532903Y-101570737D01*
X95672048Y-101779896D01*
X95674303Y-101784476D01*
X95762382Y-102037595D01*
X95785046Y-102291607D01*
X95745767Y-102536239D01*
X95648017Y-102761214D01*
X95495270Y-102956257D01*
X95290996Y-103111092D01*
X95212191Y-103151929D01*
X95030183Y-103209314D01*
X94819313Y-103234464D01*
X94614233Y-103224843D01*
X94513974Y-103203060D01*
X94291642Y-103102261D01*
X94092612Y-102939365D01*
X94080519Y-102926795D01*
X93953057Y-102777054D01*
X93873411Y-102636700D01*
X93831758Y-102480550D01*
X93818275Y-102283424D01*
X93818080Y-102254019D01*
X93821267Y-102098003D01*
X93835597Y-101985401D01*
X93867245Y-101888353D01*
X93922386Y-101778997D01*
X93924014Y-101776054D01*
X94075293Y-101567276D01*
X94261816Y-101410918D01*
X94473079Y-101306928D01*
X94698581Y-101255256D01*
X94927817Y-101255851D01*
G37*
G36*
X100253738Y-101281118D02*
G01*
X100471203Y-101361702D01*
X100664018Y-101502235D01*
X100701304Y-101538500D01*
X100856848Y-101743060D01*
X100953277Y-101972818D01*
X100991000Y-102215483D01*
X100970428Y-102458761D01*
X100891973Y-102690360D01*
X100756043Y-102897987D01*
X100652448Y-103001371D01*
X100449014Y-103132724D01*
X100216356Y-103212090D01*
X99972820Y-103236601D01*
X99736748Y-103203392D01*
X99622785Y-103162250D01*
X99395536Y-103025124D01*
X99221049Y-102849493D01*
X99099696Y-102645430D01*
X99031848Y-102423010D01*
X99017876Y-102192308D01*
X99058152Y-101963398D01*
X99153046Y-101746355D01*
X99302930Y-101551254D01*
X99508175Y-101388169D01*
X99556381Y-101360014D01*
X99678700Y-101299606D01*
X99788583Y-101267536D01*
X99919834Y-101255760D01*
X99997891Y-101254946D01*
X100253738Y-101281118D01*
G37*
G36*
X94808931Y-95421649D02*
G01*
X101641210Y-95430672D01*
X101650513Y-97035928D01*
X101652414Y-97433721D01*
X101653023Y-97765297D01*
X101652229Y-98035878D01*
X101649915Y-98250687D01*
X101645968Y-98414945D01*
X101640274Y-98533875D01*
X101632719Y-98612698D01*
X101623188Y-98656638D01*
X101614789Y-98669769D01*
X101575008Y-98672681D01*
X101467277Y-98675518D01*
X101295094Y-98678263D01*
X101061957Y-98680902D01*
X100771364Y-98683421D01*
X100426814Y-98685804D01*
X100031804Y-98688037D01*
X99589833Y-98690104D01*
X99104400Y-98691991D01*
X98579001Y-98693683D01*
X98017137Y-98695164D01*
X97422304Y-98696421D01*
X96798001Y-98697438D01*
X96147727Y-98698200D01*
X95474979Y-98698692D01*
X94783256Y-98698900D01*
X94773207Y-98698901D01*
X87976653Y-98699448D01*
X87976653Y-97056037D01*
X87976653Y-95412626D01*
X94808931Y-95421649D01*
G37*
G36*
X102794192Y-94852049D02*
G01*
X102803995Y-95452328D01*
X102615570Y-95441500D01*
X102427145Y-95430672D01*
X102417044Y-95028773D01*
X102406943Y-94626874D01*
X94800000Y-94626874D01*
X87193058Y-94626874D01*
X87182957Y-95028773D01*
X87172855Y-95430672D01*
X87002801Y-95441575D01*
X86881668Y-95440371D01*
X86821436Y-95416070D01*
X86814277Y-95404351D01*
X86808498Y-95353356D01*
X86804761Y-95244548D01*
X86803259Y-95091539D01*
X86804187Y-94907941D01*
X86805711Y-94803996D01*
X86815612Y-94251769D01*
X94800000Y-94251769D01*
X102784389Y-94251769D01*
X102794192Y-94852049D01*
G37*
G36*
X100194374Y-92070718D02*
G01*
X100194374Y-92662036D01*
X94799115Y-92662036D01*
X89403856Y-92662036D01*
X89413672Y-92081516D01*
X89423488Y-91500995D01*
X89602110Y-91500995D01*
X89780732Y-91500995D01*
X89790833Y-91902894D01*
X89800934Y-92304793D01*
X94800000Y-92304793D01*
X99799067Y-92304793D01*
X99809168Y-91902894D01*
X99819269Y-91500995D01*
X100006822Y-91490197D01*
X100194374Y-91479399D01*
X100194374Y-92070718D01*
G37*
G36*
X99015471Y-84695510D02*
G01*
X99015471Y-91518857D01*
X97413831Y-91518857D01*
X97082226Y-91518342D01*
X96772771Y-91516868D01*
X96492750Y-91514541D01*
X96249449Y-91511468D01*
X96050154Y-91507757D01*
X95902148Y-91503513D01*
X95812719Y-91498844D01*
X95788374Y-91495041D01*
X95785951Y-91457445D01*
X95783596Y-91351883D01*
X95781321Y-91181838D01*
X95779139Y-90950794D01*
X95777060Y-90662233D01*
X95775098Y-90319638D01*
X95773265Y-89926493D01*
X95771572Y-89486279D01*
X95770033Y-89002481D01*
X95768658Y-88478581D01*
X95767460Y-87918062D01*
X95766452Y-87324408D01*
X95765646Y-86701100D01*
X95765053Y-86051622D01*
X95764686Y-85379458D01*
X95764557Y-84688090D01*
X95764557Y-84671694D01*
X95764557Y-77872163D01*
X97390014Y-77872163D01*
X99015471Y-77872163D01*
X99015471Y-84695510D01*
G37*
G36*
X92494301Y-88941991D02*
G01*
X92716620Y-89040292D01*
X92905560Y-89187499D01*
X92955924Y-89243864D01*
X93092863Y-89461383D01*
X93167983Y-89691569D01*
X93185592Y-89925016D01*
X93149997Y-90152319D01*
X93065504Y-90364074D01*
X92936421Y-90550875D01*
X92767055Y-90703318D01*
X92561714Y-90811998D01*
X92324704Y-90867509D01*
X92209986Y-90872650D01*
X92062010Y-90861872D01*
X91916568Y-90836966D01*
X91846464Y-90817319D01*
X91638713Y-90707432D01*
X91460091Y-90541515D01*
X91320232Y-90332279D01*
X91228774Y-90092433D01*
X91205054Y-89971331D01*
X91209518Y-89756418D01*
X91274007Y-89537348D01*
X91389703Y-89329080D01*
X91547788Y-89146574D01*
X91739443Y-89004788D01*
X91790693Y-88977880D01*
X92014975Y-88907050D01*
X92254965Y-88896332D01*
X92494301Y-88941991D01*
G37*
G36*
X92403900Y-83708196D02*
G01*
X92509219Y-83739643D01*
X92590040Y-83774426D01*
X92818431Y-83914944D01*
X92994364Y-84096280D01*
X93115460Y-84308295D01*
X93179342Y-84540848D01*
X93183632Y-84783797D01*
X93125952Y-85027003D01*
X93003923Y-85260324D01*
X92954164Y-85327184D01*
X92791224Y-85478572D01*
X92585706Y-85591894D01*
X92358376Y-85659935D01*
X92130000Y-85675481D01*
X92004016Y-85657310D01*
X91769104Y-85569657D01*
X91563807Y-85431840D01*
X91396440Y-85254894D01*
X91275319Y-85049850D01*
X91208758Y-84827744D01*
X91205072Y-84599607D01*
X91205353Y-84597537D01*
X91274008Y-84326421D01*
X91396785Y-84097388D01*
X91568334Y-83915566D01*
X91783304Y-83786085D01*
X92036344Y-83714077D01*
X92138331Y-83703041D01*
X92290728Y-83697648D01*
X92403900Y-83708196D01*
G37*
G36*
X92510984Y-78538669D02*
G01*
X92731229Y-78649122D01*
X92891078Y-78780803D01*
X93058270Y-78993398D01*
X93159857Y-79225056D01*
X93195860Y-79466588D01*
X93166302Y-79708810D01*
X93071205Y-79942534D01*
X92910590Y-80158575D01*
X92887733Y-80182057D01*
X92676575Y-80348385D01*
X92445672Y-80446540D01*
X92198512Y-80475647D01*
X91938584Y-80434828D01*
X91912521Y-80427023D01*
X91680549Y-80320677D01*
X91486836Y-80164399D01*
X91338119Y-79969341D01*
X91241137Y-79746656D01*
X91202624Y-79507497D01*
X91223682Y-79286682D01*
X91311422Y-79037744D01*
X91447620Y-78831188D01*
X91622435Y-78670001D01*
X91826021Y-78557169D01*
X92048537Y-78495679D01*
X92280139Y-78488517D01*
X92510984Y-78538669D01*
G37*
G36*
X100194374Y-77282711D02*
G01*
X100194374Y-77872163D01*
X99997891Y-77872163D01*
X99801407Y-77872163D01*
X99801407Y-77461333D01*
X99801407Y-77050503D01*
X94800000Y-77050503D01*
X89798594Y-77050503D01*
X89798594Y-77461333D01*
X89798594Y-77872163D01*
X89602110Y-77872163D01*
X89405626Y-77872163D01*
X89405626Y-77282711D01*
X89405626Y-76693260D01*
X94800000Y-76693260D01*
X100194374Y-76693260D01*
X100194374Y-77282711D01*
G37*
D14*
%TO.C,C5*%
X53330000Y-116680000D02*
X53330000Y-121920000D01*
X53645000Y-116680000D02*
X53330000Y-116680000D01*
X53645000Y-121920000D02*
X53330000Y-121920000D01*
X56070000Y-116680000D02*
X55755000Y-116680000D01*
X56070000Y-116680000D02*
X56070000Y-121920000D01*
X56070000Y-121920000D02*
X55755000Y-121920000D01*
%TO.C,U1*%
X63510000Y-75045000D02*
G75*
G02*
X61510000Y-75045000I-1000000J0D01*
G01*
X65160000Y-92945000D02*
X65160000Y-75045000D01*
X65160000Y-75045000D02*
X63510000Y-75045000D01*
X61510000Y-75045000D02*
X59860000Y-75045000D01*
X59860000Y-92945000D02*
X65160000Y-92945000D01*
X59860000Y-75045000D02*
X59860000Y-92945000D01*
%TO.C,J6*%
X49700000Y-127230000D02*
X49700000Y-137730000D01*
X52970000Y-124080000D02*
X52970000Y-124880000D01*
X52970000Y-124080000D02*
X53830000Y-124080000D01*
X53400000Y-137730000D02*
X49700000Y-137730000D01*
X53480000Y-127230000D02*
X49700000Y-127230000D01*
X58700000Y-127230000D02*
X54920000Y-127230000D01*
X58700000Y-127230000D02*
X58700000Y-137730000D01*
X58700000Y-137730000D02*
X55000000Y-137730000D01*
X56000000Y-131730000D02*
G75*
G02*
X52400000Y-131730000I-1800000J0D01*
G01*
X52400000Y-131730000D02*
G75*
G02*
X56000000Y-131730000I1800000J0D01*
G01*
%TO.C,R6*%
X49380000Y-113400000D02*
X49380000Y-119940000D01*
X49380000Y-119940000D02*
X52120000Y-119940000D01*
X50750000Y-112630000D02*
X50750000Y-113400000D01*
X50750000Y-120710000D02*
X50750000Y-119940000D01*
X52120000Y-113400000D02*
X49380000Y-113400000D01*
X52120000Y-119940000D02*
X52120000Y-113400000D01*
%TO.C,J9*%
X66200000Y-142230000D02*
X66200000Y-152730000D01*
X69470000Y-139080000D02*
X69470000Y-139880000D01*
X69470000Y-139080000D02*
X70330000Y-139080000D01*
X69900000Y-152730000D02*
X66200000Y-152730000D01*
X69980000Y-142230000D02*
X66200000Y-142230000D01*
X75200000Y-142230000D02*
X71420000Y-142230000D01*
X75200000Y-142230000D02*
X75200000Y-152730000D01*
X75200000Y-152730000D02*
X71500000Y-152730000D01*
X72500000Y-146730000D02*
G75*
G02*
X68900000Y-146730000I-1800000J0D01*
G01*
X68900000Y-146730000D02*
G75*
G02*
X72500000Y-146730000I1800000J0D01*
G01*
%TO.C,J7*%
X66200000Y-127230000D02*
X66200000Y-137730000D01*
X69470000Y-124080000D02*
X69470000Y-124880000D01*
X69470000Y-124080000D02*
X70330000Y-124080000D01*
X69900000Y-137730000D02*
X66200000Y-137730000D01*
X69980000Y-127230000D02*
X66200000Y-127230000D01*
X75200000Y-127230000D02*
X71420000Y-127230000D01*
X75200000Y-127230000D02*
X75200000Y-137730000D01*
X75200000Y-137730000D02*
X71500000Y-137730000D01*
X72500000Y-131730000D02*
G75*
G02*
X68900000Y-131730000I-1800000J0D01*
G01*
X68900000Y-131730000D02*
G75*
G02*
X72500000Y-131730000I1800000J0D01*
G01*
%TO.C,J8*%
X49700000Y-142230000D02*
X49700000Y-152730000D01*
X52970000Y-139080000D02*
X52970000Y-139880000D01*
X52970000Y-139080000D02*
X53830000Y-139080000D01*
X53400000Y-152730000D02*
X49700000Y-152730000D01*
X53480000Y-142230000D02*
X49700000Y-142230000D01*
X58700000Y-142230000D02*
X54920000Y-142230000D01*
X58700000Y-142230000D02*
X58700000Y-152730000D01*
X58700000Y-152730000D02*
X55000000Y-152730000D01*
X56000000Y-146730000D02*
G75*
G02*
X52400000Y-146730000I-1800000J0D01*
G01*
X52400000Y-146730000D02*
G75*
G02*
X56000000Y-146730000I1800000J0D01*
G01*
%TO.C,C1*%
X70945225Y-94525000D02*
X71445225Y-94525000D01*
X71195225Y-94275000D02*
X71195225Y-94775000D01*
X76370000Y-96000000D02*
G75*
G02*
X71130000Y-96000000I-2620000J0D01*
G01*
X71130000Y-96000000D02*
G75*
G02*
X76370000Y-96000000I2620000J0D01*
G01*
%TO.C,D2*%
X60940000Y-137264000D02*
X60940000Y-137420000D01*
X60940000Y-139580000D02*
X60940000Y-139736000D01*
X60940000Y-137264484D02*
G75*
G02*
X64171397Y-137419939I1560000J-1235516D01*
G01*
X61459039Y-137420000D02*
G75*
G02*
X63540910Y-137419951I1040961J-1080000D01*
G01*
X63540910Y-139580049D02*
G75*
G02*
X61459039Y-139580000I-1040910J1080049D01*
G01*
X64171397Y-139580061D02*
G75*
G02*
X60940000Y-139735516I-1671397J1080061D01*
G01*
%TO.C,J3*%
X66250000Y-48080000D02*
X66250000Y-58580000D01*
X69520000Y-44930000D02*
X69520000Y-45730000D01*
X69520000Y-44930000D02*
X70380000Y-44930000D01*
X69950000Y-58580000D02*
X66250000Y-58580000D01*
X70030000Y-48080000D02*
X66250000Y-48080000D01*
X75250000Y-48080000D02*
X71470000Y-48080000D01*
X75250000Y-48080000D02*
X75250000Y-58580000D01*
X75250000Y-58580000D02*
X71550000Y-58580000D01*
X72550000Y-52580000D02*
G75*
G02*
X68950000Y-52580000I-1800000J0D01*
G01*
X68950000Y-52580000D02*
G75*
G02*
X72550000Y-52580000I1800000J0D01*
G01*
%TO.C,C4*%
X71370000Y-88520000D02*
X71370000Y-83280000D01*
X71055000Y-88520000D02*
X71370000Y-88520000D01*
X71055000Y-83280000D02*
X71370000Y-83280000D01*
X68630000Y-88520000D02*
X68945000Y-88520000D01*
X68630000Y-88520000D02*
X68630000Y-83280000D01*
X68630000Y-83280000D02*
X68945000Y-83280000D01*
%TO.C,R10*%
X69380000Y-113350000D02*
X69380000Y-119890000D01*
X69380000Y-119890000D02*
X72120000Y-119890000D01*
X70750000Y-112580000D02*
X70750000Y-113350000D01*
X70750000Y-120660000D02*
X70750000Y-119890000D01*
X72120000Y-113350000D02*
X69380000Y-113350000D01*
X72120000Y-119890000D02*
X72120000Y-113350000D01*
%TO.C,J5*%
X66250000Y-63080000D02*
X66250000Y-73580000D01*
X69520000Y-59930000D02*
X69520000Y-60730000D01*
X69520000Y-59930000D02*
X70380000Y-59930000D01*
X69950000Y-73580000D02*
X66250000Y-73580000D01*
X70030000Y-63080000D02*
X66250000Y-63080000D01*
X75250000Y-63080000D02*
X71470000Y-63080000D01*
X75250000Y-63080000D02*
X75250000Y-73580000D01*
X75250000Y-73580000D02*
X71550000Y-73580000D01*
X72550000Y-67580000D02*
G75*
G02*
X68950000Y-67580000I-1800000J0D01*
G01*
X68950000Y-67580000D02*
G75*
G02*
X72550000Y-67580000I1800000J0D01*
G01*
%TO.C,R3*%
X61130000Y-47480000D02*
X61130000Y-54020000D01*
X61130000Y-54020000D02*
X63870000Y-54020000D01*
X62500000Y-46710000D02*
X62500000Y-47480000D01*
X62500000Y-54790000D02*
X62500000Y-54020000D01*
X63870000Y-47480000D02*
X61130000Y-47480000D01*
X63870000Y-54020000D02*
X63870000Y-47480000D01*
%TO.C,R9*%
X63770000Y-150350000D02*
X63770000Y-143810000D01*
X63770000Y-143810000D02*
X61030000Y-143810000D01*
X62400000Y-151120000D02*
X62400000Y-150350000D01*
X62400000Y-143040000D02*
X62400000Y-143810000D01*
X61030000Y-150350000D02*
X63770000Y-150350000D01*
X61030000Y-143810000D02*
X61030000Y-150350000D01*
%TO.C,C6*%
X53330000Y-109180000D02*
X53645000Y-109180000D01*
X53330000Y-114420000D02*
X53330000Y-109180000D01*
X53330000Y-114420000D02*
X53645000Y-114420000D01*
X55755000Y-109180000D02*
X56070000Y-109180000D01*
X55755000Y-114420000D02*
X56070000Y-114420000D01*
X56070000Y-114420000D02*
X56070000Y-109180000D01*
%TO.C,R8*%
X72880000Y-113350000D02*
X72880000Y-119890000D01*
X72880000Y-119890000D02*
X75620000Y-119890000D01*
X74250000Y-112580000D02*
X74250000Y-113350000D01*
X74250000Y-120660000D02*
X74250000Y-119890000D01*
X75620000Y-113350000D02*
X72880000Y-113350000D01*
X75620000Y-119890000D02*
X75620000Y-113350000D01*
%TO.C,C3*%
X68630000Y-75780000D02*
X68945000Y-75780000D01*
X68630000Y-81020000D02*
X68630000Y-75780000D01*
X68630000Y-81020000D02*
X68945000Y-81020000D01*
X71055000Y-75780000D02*
X71370000Y-75780000D01*
X71055000Y-81020000D02*
X71370000Y-81020000D01*
X71370000Y-81020000D02*
X71370000Y-75780000D01*
%TO.C,R1*%
X50130000Y-77730000D02*
X50130000Y-84270000D01*
X50130000Y-84270000D02*
X52870000Y-84270000D01*
X51500000Y-76960000D02*
X51500000Y-77730000D01*
X51500000Y-85040000D02*
X51500000Y-84270000D01*
X52870000Y-77730000D02*
X50130000Y-77730000D01*
X52870000Y-84270000D02*
X52870000Y-77730000D01*
%TO.C,R7*%
X61030000Y-126630000D02*
X61030000Y-133170000D01*
X61030000Y-133170000D02*
X63770000Y-133170000D01*
X62400000Y-125860000D02*
X62400000Y-126630000D01*
X62400000Y-133940000D02*
X62400000Y-133170000D01*
X63770000Y-126630000D02*
X61030000Y-126630000D01*
X63770000Y-133170000D02*
X63770000Y-126630000D01*
%TO.C,J2*%
X49750000Y-48080000D02*
X49750000Y-58580000D01*
X53020000Y-44930000D02*
X53020000Y-45730000D01*
X53020000Y-44930000D02*
X53880000Y-44930000D01*
X53450000Y-58580000D02*
X49750000Y-58580000D01*
X53530000Y-48080000D02*
X49750000Y-48080000D01*
X58750000Y-48080000D02*
X54970000Y-48080000D01*
X58750000Y-48080000D02*
X58750000Y-58580000D01*
X58750000Y-58580000D02*
X55050000Y-58580000D01*
X56050000Y-52580000D02*
G75*
G02*
X52450000Y-52580000I-1800000J0D01*
G01*
X52450000Y-52580000D02*
G75*
G02*
X56050000Y-52580000I1800000J0D01*
G01*
%TO.C,U2*%
X59540000Y-104670000D02*
X59540000Y-122570000D01*
X59540000Y-122570000D02*
X64840000Y-122570000D01*
X61190000Y-104670000D02*
X59540000Y-104670000D01*
X64840000Y-104670000D02*
X63190000Y-104670000D01*
X64840000Y-122570000D02*
X64840000Y-104670000D01*
X63190000Y-104670000D02*
G75*
G02*
X61190000Y-104670000I-1000000J0D01*
G01*
%TO.C,J4*%
X49750000Y-63080000D02*
X49750000Y-73580000D01*
X53020000Y-59930000D02*
X53020000Y-60730000D01*
X53020000Y-59930000D02*
X53880000Y-59930000D01*
X53450000Y-73580000D02*
X49750000Y-73580000D01*
X53530000Y-63080000D02*
X49750000Y-63080000D01*
X58750000Y-63080000D02*
X54970000Y-63080000D01*
X58750000Y-63080000D02*
X58750000Y-73580000D01*
X58750000Y-73580000D02*
X55050000Y-73580000D01*
X56050000Y-67580000D02*
G75*
G02*
X52450000Y-67580000I-1800000J0D01*
G01*
X52450000Y-67580000D02*
G75*
G02*
X56050000Y-67580000I1800000J0D01*
G01*
%TO.C,R2*%
X61130000Y-64650000D02*
X61130000Y-71190000D01*
X61130000Y-71190000D02*
X63870000Y-71190000D01*
X62500000Y-63880000D02*
X62500000Y-64650000D01*
X62500000Y-71960000D02*
X62500000Y-71190000D01*
X63870000Y-64650000D02*
X61130000Y-64650000D01*
X63870000Y-71190000D02*
X63870000Y-64650000D01*
%TO.C,R4*%
X53880000Y-77730000D02*
X53880000Y-84270000D01*
X53880000Y-84270000D02*
X56620000Y-84270000D01*
X55250000Y-76960000D02*
X55250000Y-77730000D01*
X55250000Y-85040000D02*
X55250000Y-84270000D01*
X56620000Y-77730000D02*
X53880000Y-77730000D01*
X56620000Y-84270000D02*
X56620000Y-77730000D01*
%TO.C,R5*%
X73130000Y-77730000D02*
X73130000Y-84270000D01*
X73130000Y-84270000D02*
X75870000Y-84270000D01*
X74500000Y-76960000D02*
X74500000Y-77730000D01*
X74500000Y-85040000D02*
X74500000Y-84270000D01*
X75870000Y-77730000D02*
X73130000Y-77730000D01*
X75870000Y-84270000D02*
X75870000Y-77730000D01*
%TO.C,D1*%
X61120000Y-58164000D02*
X61120000Y-58320000D01*
X61120000Y-60480000D02*
X61120000Y-60636000D01*
X61120000Y-58164484D02*
G75*
G02*
X64351397Y-58319939I1560000J-1235516D01*
G01*
X61639039Y-58320000D02*
G75*
G02*
X63720910Y-58319951I1040961J-1080000D01*
G01*
X63720910Y-60480049D02*
G75*
G02*
X61639039Y-60480000I-1040910J1080049D01*
G01*
X64351397Y-60480061D02*
G75*
G02*
X61120000Y-60635516I-1671397J1080061D01*
G01*
%TO.C,C2*%
X70945225Y-100125000D02*
X71445225Y-100125000D01*
X71195225Y-99875000D02*
X71195225Y-100375000D01*
X76370000Y-101600000D02*
G75*
G02*
X71130000Y-101600000I-2620000J0D01*
G01*
X71130000Y-101600000D02*
G75*
G02*
X76370000Y-101600000I2620000J0D01*
G01*
%TD*%
M02*
